<svg xmlns="http://www.w3.org/2000/svg" width="60" height="60" viewBox="0 0 512 512"><path d="M208 40.01a9.969 9.969 0 0 0-9.99 9.99 9.961 9.961 0 0 0 8.99 9.938A9.97 9.97 0 0 0 217.99 50c0-5.538-4.46-9.99-9.99-9.99z"/><path d="M408 60c-27.57 0-50-22.43-50-50 0-5.522-4.478-10-10-10H68c-5.522 0-10 4.478-10 10 0 27.57-22.43 50-50 50-5.522 0-10 4.478-10 10v163.19c0 127.177 82.895 241.135 207.128 278.389a9.997 9.997 0 0 0 5.745-.001C332.415 475.119 418 363.149 418 233.19V70c0-5.522-4.478-10-10-10zm-10 173.19c0 119.448-76.221 222.892-190 258.353C95.128 456.365 18 351.984 18 233.19V79.288C48.611 74.89 72.89 50.611 77.288 20h261.424C343.11 50.611 367.389 74.89 398 79.288V233.19z"/><path d="M372.012 92.49c-20.854-9.133-37.369-25.648-46.502-46.502A10 10 0 0 0 316.35 40h-68.37c-5.522 0-10 4.478-10 10s4.478 10 10 10h62.047A109.933 109.933 0 0 0 358 107.973V233.19c0 97.863-58.749 182.303-150 216.104C116.749 415.492 58 331.053 58 233.19V107.973A109.938 109.938 0 0 0 105.973 60h62.047c5.522 0 10-4.478 10-10s-4.478-10-10-10H99.65a10.002 10.002 0 0 0-9.16 5.988C81.357 66.842 64.842 83.357 43.988 92.49A10.003 10.003 0 0 0 38 101.65v131.54c0 107.213 66.311 200.653 166.664 236.166a9.993 9.993 0 0 0 6.672 0C311.605 433.873 378 340.49 378 233.19V101.65c0-3.972-2.351-7.566-5.988-9.16z"/><path d="M208 146c-49.626 0-90 40.374-90 90s40.374 90 90 90 90-40.374 90-90-40.374-90-90-90zm0 160c-38.598 0-70-31.402-70-70s31.402-70 70-70 70 31.402 70 70-31.402 70-70 70z"/><path d="M255.071 208.928c-3.906-3.904-10.236-3.904-14.143 0L198 251.857l-12.929-12.928c-3.906-3.904-10.236-3.904-14.143 0-3.905 3.905-3.905 10.237 0 14.143l20 20C192.882 275.023 195.44 276 198 276s5.118-.977 7.071-2.929l50-50c3.905-3.905 3.905-10.237 0-14.143z"/></svg>