<svg xmlns="http://www.w3.org/2000/svg" width="21" height="21" viewBox="0 0 533.333 533.333"><path d="M438.548 307.021c-7.108-7.003-22.872-10.712-46.86-11.027-16.238-.179-35.782 1.251-56.339 4.129-9.205-5.311-18.691-11.091-26.139-18.051-20.033-18.707-36.755-44.673-47.175-73.226a267.572 267.572 0 0 0 1.795-7.403s11.284-64.093 8.297-85.763c-.411-2.972-.664-3.834-1.463-6.144l-.98-2.518c-3.069-7.079-9.087-14.58-18.522-14.171l-5.533-.176-.152-.003c-10.521 0-19.096 5.381-21.347 13.424-6.842 25.226.218 62.964 13.012 111.842l-3.275 7.961c-9.161 22.332-20.641 44.823-30.77 64.665l-1.317 2.581c-10.656 20.854-20.325 38.557-29.09 53.554l-9.05 4.785c-.659.348-16.169 8.551-19.807 10.752-30.862 18.427-51.313 39.346-54.706 55.946-1.08 5.297-.276 12.075 5.215 15.214l8.753 4.405c3.797 1.902 7.801 2.866 11.903 2.866 21.981 0 47.5-27.382 82.654-88.732 40.588-13.214 86.799-24.197 127.299-30.255 30.864 17.379 68.824 29.449 92.783 29.449 4.254 0 7.921-.406 10.901-1.194 4.595-1.217 8.468-3.838 10.829-7.394 4.648-6.995 5.591-16.631 4.329-26.497-.376-2.927-2.715-6.547-5.245-9.019zM110.233 423.983c4.008-10.96 19.875-32.627 43.335-51.852 1.475-1.196 5.108-4.601 8.435-7.762-24.533 39.128-40.962 54.723-51.77 59.614zm138.952-319.98c7.066 0 11.085 17.81 11.419 34.507.333 16.698-3.572 28.417-8.416 37.088-4.012-12.838-5.951-33.073-5.951-46.304 0 0-.295-25.291 2.948-25.291zm-41.45 228.025c4.922-8.811 10.043-18.103 15.276-27.957 12.756-24.123 20.812-42.999 26.812-58.514 11.933 21.71 26.794 40.167 44.264 54.955a174.49 174.49 0 0 0 6.913 5.547c-35.526 7.029-66.231 15.578-93.265 25.969zm223.987-2.001c-2.164 1.353-8.362 2.135-12.349 2.135-12.867 0-28.787-5.883-51.105-15.451 8.575-.635 16.438-.957 23.489-.957 12.906 0 16.729-.056 29.349 3.163s12.779 9.757 10.616 11.11zm38.816-226.157L396.13 29.463C379.925 13.258 347.917 0 325 0H75C52.083 0 33.333 18.75 33.333 41.667v450c0 22.916 18.75 41.666 41.667 41.666h383.333c22.916 0 41.666-18.75 41.666-41.666V175c.001-22.917-13.257-54.926-29.461-71.13zm-23.57 23.57c1.631 1.631 3.255 3.633 4.833 5.893h-85.134V48.2c2.261 1.578 4.263 3.203 5.893 4.833l74.408 74.407zm19.699 364.227c0 4.517-3.816 8.333-8.333 8.333H75c-4.517 0-8.333-3.816-8.333-8.333v-450c0-4.517 3.817-8.333 8.333-8.333h250c2.517 0 5.341.318 8.334.887v132.446H465.78c.569 2.993.887 5.816.887 8.333v316.667z" fill="#55afed"/></svg>