<svg width="37" height="29" viewBox="0 0 1280 998" xmlns="http://www.w3.org/2000/svg"><g fill="#da031b"><path d="M378.28 0h37.07c48.82 2.59 97.25 13.82 141.88 33.88 20.6 9.22 40.43 20.17 59.15 32.79 8.07 5.64 16.42 11.02 23.74 17.63-24.59 19.85-47.28 42.15-66.71 67.11-45.46 57.8-74.25 128.54-81.8 201.69-7.76 72.49 4.82 147.11 36.51 212.81 23.5 49.02 57.26 93.08 98.44 128.56 4.43 4.06 9.47 7.42 13.65 11.76-31.54 24.66-66.74 44.68-104.21 58.8-76.75 29.15-162.66 33.37-241.95 12.18-71.72-18.95-137.67-58.81-188.02-113.25-47.5-51.01-81.17-114.81-96.16-182.9C-7.42 403.25-.75 320.22 29.41 246.39c20.26-50 50.98-95.7 89.5-133.45C157.55 74.95 204.07 45 254.69 25.67 294.14 10.49 336.08 2 378.28 0zm816.96 842.28c7.42.23 14.85.1 22.27.07-.14 48.78-.16 97.57.01 146.35-7.43-.05-14.87-.17-22.29.07.24-4.65.04-9.31.17-13.95-2.83 4.59-7.1 8.08-11.53 11.04-.6.22-1.79.67-2.38.89l-.16 1.01c-.36-.08-1.08-.23-1.44-.31-1.65 1.53-3.91 1.92-6.01 2.38-1.49.92-3.33.68-4.96.94-4.67 1.19-9.92 1.09-14.59-.06-1.73-.3-3.8.32-5.18-.95-1.4-.21-2.74-.4-4.02-.89-1.49-.68-3.04-1.18-4.63-1.42l.01-1.05c-.49.08-1.48.25-1.97.33l.08-1.06c-3.57-.45-6.18-3.3-9.1-5.12-4.15-3.85-8.54-7.69-11.23-12.74-1.91-2.33-3.23-5.11-4.09-7.97-3.02-5.74-3.92-12.46-4.68-18.86.09-4.22-.71-8.69.82-12.7.07-1.59.09-3.18.11-4.75l.96.1c.07-1.54-.37-3.3.76-4.57.03-1.12.39-2.1 1.05-2.94 0-1.25.45-2.26 1.33-3.03-.09-.37-.26-1.09-.35-1.45l1.09-.08c.01-1.71.95-3.09 1.97-4.35 2.85-5.45 7.04-10.25 11.92-13.99 5.36-4.1 11.47-8.3 18.36-8.83l-.18-.77c3.21-.44 6.34-1.45 9.62-1.28 6.28.19 12.95-.8 18.86 1.84 1.06.18 2.09.52 3.07 1.02 3.46 1.19 6.45 3.34 9.38 5.5 1.54 1.43 3.43 2.62 4.49 4.51.26.35.79 1.06 1.06 1.41l1.59.03c-.26-18.12.11-36.25-.19-54.37m-40.82 61.36l.13.8c-4.73.44-8.25 3.84-12.02 6.34v.84l-.91-.17c-.23.32-.7.97-.93 1.3-2.47 3.62-5.6 7.19-6.19 11.69l-1.01.03c.01 1.32.03 2.65.06 3.99l-1-.06c-.1 5.74-.1 11.47.05 17.21l1.05-.2c-.03.69-.07 2.08-.1 2.78 1 .81 1.35 1.95 1.07 3.42l1.15-.07c-.11.49-.32 1.46-.43 1.95l1.39.1c-.08.42-.24 1.24-.32 1.65 1.85 1.28 2.69 3.46 4.15 5.12 1.95 2.37 4.48 4.15 7.02 5.86 1.88.98 3.73 2.18 5.91 2.37l-.06.72c1.44.03 2.94.24 4.27.94 4.61.44 9.26.11 13.9.2l-.02-.96c1.32-.03 2.66-.04 4-.04l-.11-1.26c.42.09 1.26.26 1.68.35 1.15-1.19 2.63-2.06 4.34-2.06l-.02-1.1 1.69.08c.92-2.43 3.85-3 5.12-5.23.89-1.45 1.88-2.83 3.1-4.02.61-1.93 2.04-3.52 2.24-5.58l.69-.04c-.16-1.36.19-2.51 1.06-3.44.06-1.23.09-2.44.1-3.64l1.01.07c-.2-3.21-.12-6.41-.08-9.6.17-2.93-1.27-5.65-1.05-8.57l-.75.13c-.42-1.71-.9-3.38-1.28-5.07l-1.09-.21c.09-.34.28-1.04.37-1.39a6.315 6.315 0 0 1-2.31-3.29c-2.92-3.36-6.04-6.61-9.9-8.88-1.43-.59-2.82-1.24-4.14-1.97-1.94-.69-3.93-1.2-5.97-1.27l.32-.94c-3.24.24-6.47 0-9.69.17-2.16.43-4.29 1.07-6.49.95zM513.43 852.5c7.42.09 14.85.15 22.27-.03-.19 10.68.12 21.37-.16 32.06 12.64-.15 25.29.04 37.93-.09-.1 6.75-.14 13.5.03 20.25-12.65-.19-25.31.17-37.96-.18.19 17.36.18 34.73 0 52.1l.88-.21c-.08 2.34.7 4.57 1.23 6.84.98.8 1.71 1.85 1.99 3.12 1.34.14 2.01.9 2.03 2.3.46-.13 1.38-.39 1.84-.51l-.15 1.2c4.2.85 8.44 1.34 12.74.97 1.56-1.22 3.61-.85 5.45-.9l-.09-.79c1.59-.37 3.17-.83 4.74-1.33 1.33-.79 2.73-1.47 4.22-1.94.27-.33.82-.99 1.1-1.32.02.53.06 1.59.09 2.12.9.85 1.25 1.96 1.04 3.35l.89.02v3.07l.99-.09c.01.77.03 2.3.03 3.07l.98-.09c0 .77.02 2.32.02 3.09l.98-.11c.01.78.01 2.32.01 3.1l1.18-.07c.32 2.05-1.1 3.22-2.75 4.09l-1.48-.16-.19 1.25-1.45-.16c-1.79 1.52-4.1 2.06-6.4 2.13l.11.92c-1.38-.02-2.75-.04-4.12-.07l.09 1.01c-1.61.03-3.21.08-4.8.16-7.64 2.14-15.68.19-23.28-1.27l.08-.75c-5.44-.85-10.2-4.7-13.33-9.11-1.36-1.8-2.75-3.75-2.88-6.08l-.74.05c-.46-1.9-.97-3.76-1.47-5.63-1.12-2.7-.72-5.68-.67-8.51l-.92.22c-.06-18.35-.12-36.71.01-55.06-7.1.32-14.21-.09-21.31.24.22-6.8.14-13.61.04-20.41 7.09.29 14.19-.03 21.28.19-.2-10.68.03-21.37-.12-32.05zm-404.29 30.72c2.64-1.59 5.96-.59 8.89-.88 3.91.27 8.1-.69 11.81.85 2.09.36 4.24.75 6.03 1.96 2.12.72 4.3 1.52 5.95 3.12 1.02.5 1.92 1.19 2.81 1.91 1.95 1.39 3.88 2.91 5.08 5.04 1.98 2.4 4.52 4.72 4.3 8.2.32-1.08.95-3.24 1.26-4.32.77-1.47 1.87-2.71 3.03-3.87 2.69-3.3 6.19-6.47 10.23-7.95l.13-1.07c.46.1 1.37.31 1.83.41l.14-1.07c1.6-.5 3.19-1.03 4.86-1.25l.03-.66c7.06-1.73 14.33-1.32 21.54-1.25 1.58.02 3.21.15 4.63.92.68.04 2.05.12 2.73.15l.09 1.08 2.93-.2-.04 1.01c7.3 1.47 13.07 7.19 17.4 12.97 1.16 1.93 2.98 3.79 2.77 6.23l1.01.08c1.09 4.75 3.01 9.39 3.05 14.36.13 23.26-.16 46.52.14 69.78-7.49-.21-14.99-.18-22.48-.02.33-22.11-.08-44.23.19-66.35l-1.05.27c0-1.43 0-2.84.03-4.25l-.81.07c-.46-1.66-.94-3.31-1.25-4.98l-.73.03c-.45-.99-.9-1.97-1.34-2.94-1.91-2.51-4.57-4.14-7.15-5.84-.98-.31-1.96-.61-2.94-.91-4.29-1.46-8.82-1.32-13.29-1.17-1.18 1.35-3.03.82-4.58.94l.09 1.29c-.39-.13-1.17-.37-1.56-.49-3.19 2.21-6.95 3.85-9.14 7.25-1.86 2.08-2.63 4.81-4.11 7.13l-.2 2.67-.89-.05c0 2.05-.07 4.12-.15 6.19l-.87-.15c.34 20.44-.13 40.88.23 61.31-7.46-.23-14.92-.14-22.38-.05.11-21.99.35-44-.15-65.98-.49-1.24-.81-2.54-1.13-3.81-.41-1.16-.7-2.34-.85-3.54l-.6-.02c-1.48-5.13-5.82-8.95-10.59-11.03-1.96-.68-4.12-.65-5.96-1.65-2.8-.1-5.59-.07-8.38.03-2.35.89-4.81 1.48-7.28 1.96l-.15 1.05c-.36-.09-1.07-.26-1.43-.35-.75 1.13-1.89 1.86-3.16 2.29-1 .97-2 1.96-3.03 2.92-.84 1.29-1.65 2.6-2.44 3.93l-.95.02c.13.44.4 1.33.53 1.77l-1.1.12c-.46 2.05-1.17 4.04-1.34 6.16l-.82-.19c-.19 22.1-.21 44.2-.03 66.3-7.43-.05-14.87-.17-22.3.07.23-34.8.14-69.61.04-104.4 7.15.18 14.31.18 21.45 0-.11 4.15-.04 8.31-.12 12.48 1.42-.32 3.17-.42 3.04-2.37l.62.01c1.64-3.26 4.85-5.46 7.96-7.19 1.09-1.28 2.65-2.14 4.38-1.83l-.12-.91c1.86-.54 3.75-1.01 5.66-1.34zm185.45-.63c7.04-.07 14.3-1.01 21.23.54 1.89.5 3.78 1.01 5.69 1.46l-.05.73c3.56.48 6.65 2.69 9.35 4.94 2.38 1.61 4.74 3.58 5.98 6.24l1.7.22c-.15-4.12-.04-8.23-.16-12.34 7.44.16 14.89.16 22.34 0-.11 34.79-.19 69.59.04 104.37-7.47-.17-14.95-.17-22.43 0 .21-4.1.03-8.21.24-12.3l-2 .05c.49 2.06-1.83 2.85-2.91 4.14-2.1 1.8-3.94 4.39-6.79 4.97-1.06 1.37-2.64 2-4.34 2.04l-.04.73c-1.85.53-3.71 1.04-5.59 1.44-1.44.86-3.12.88-4.74.91-9.23 2.02-19-.01-27.73-3.3l-1.24-.96c-.36.05-1.06.15-1.42.19l-.24-1.25-1.45.16c-8.42-5.05-15.58-12.07-20.55-20.56l.04-1.56-1.32-.09c.09-.37.26-1.11.35-1.49-1.44-1.32-1.87-3.23-2.32-5.03-1.2-2.15-1.51-4.62-2.04-6.97-1.52-4.69-.25-9.79-1.91-14.49l1.15.33c-.48-5.11.21-10.14 1.15-15.13l.8-.04c.01-1.89.38-3.75 1.18-5.46 2.41-5.71 5.33-11.36 9.71-15.82 1.32-2.05 3-3.93 5.23-5l.02-.53c2.29-1.43 4.2-3.4 6.69-4.52 1.3-.93 2.67-1.86 4.35-1.93l.08-1.07c.37.08 1.11.24 1.49.32 1.68-1.74 4.15-2.03 6.43-2.2l-.11-.86c1.37-.01 2.73-.01 4.1.01l.04-.89m1.17 22.16c-6.96 2.61-12.23 8.1-16.3 14.11.06.36.17 1.08.23 1.43l-1.02.2c-.4 1.67-.87 3.33-1.29 5.01l-.84-.1c.02 1.39.03 2.79.04 4.2l-1.01-.26c.07 4.72.11 9.44-.03 14.17l.96.05c.01 1.17.06 2.35.14 3.54.83.96 1.18 2.12 1.06 3.5l.66.05c.3 2.01 1.47 3.73 2.31 5.56 1.07 1.27 2.2 2.53 2.97 4.03 2.15 1.94 4.1 4.44 6.88 5.41v.78c1.57.17 3.04.84 4.23 1.89 1.86.58 3.74 1.02 5.67 1.32l.01.82c4.62-.13 9.24.24 13.85-.21 1.34-.68 2.82-.92 4.32-.95l-.09-.71c8.07-1.79 13.87-8.52 17.82-15.41.46-1.56.9-3.13 1.34-4.68l.65.08c1.9-7.97 1.33-16.19.09-24.17l-.92.06c-.55-4.61-3.88-8.15-6.23-11.92l-.81-.01.02-.76c-.32-.25-.97-.76-1.29-1.02-2.2-1.88-4.62-3.42-7.02-4.99-1.54-.57-3.09-1.07-4.69-1.37l.11-.85c-1.83-.04-3.93.45-5.42-.91-3.27 0-6.55.07-9.81-.1l.15.92c-2.33-.14-4.57.55-6.74 1.29zM414.4 883.5c1.27-.06 2.55-.11 3.83-.19 2.4-1.23 5.18-.9 7.78-.97 8.65.13 17.53-.67 25.9 1.87 1.34.22 2.98 0 3.98 1.15.68.02 2.04.07 2.72.09l-.15 1.04c.77-.03 2.31-.08 3.08-.11l-.07.91c1.36-.08 2.51.33 3.46 1.23.35-.07 1.05-.2 1.39-.27l.17 1.35c.47-.09 1.42-.29 1.9-.39l.06 1.38c.46-.08 1.39-.25 1.85-.33l.16 1c2.44-.3 2.73 2.37 1.64 3.93-1.64 2.48-2.37 5.58-4.6 7.63.04.41.13 1.23.18 1.64l-1.32.05c.06.36.17 1.09.23 1.45-1.28 1.29-1.72 3.07-2.66 4.57-3.14-1.3-5.93-3.61-9.39-4.06l.09-.88c-.78-.02-2.35-.05-3.13-.07l.07-.97c-.8.01-2.4.01-3.19.02l.22-1.02c-1.43-.01-2.85-.01-4.27 0l.27-.99c-2.02.01-4.04-.02-6.06-.04l.03-1.04c-4.71.29-9.44.22-14.16.04l.26 1.05c-1.42-.01-2.83-.03-4.24-.05l.07 1.24-1.58-.32c-5.07 2.39-9.04 7.27-8.45 13.16l1.34-.02c-.12.48-.37 1.45-.49 1.94l1.44-.06-.4 1.85c3.55.64 6.38 3.5 10.22 3.32l-.17.81c2.02-.05 4.05.01 6.08.07l-.06.95c2.81-.01 5.84-.47 8.46.84 1.57.08 3.14.13 4.73.16l-.27.97c2.13.12 4.66-.63 6.5.82 2.42.28 4.77.95 7.02 1.9 6.36 2.15 12.33 5.86 16.42 11.26 1.06 1.55 2.3 3.13 2.41 5.11l.89.02c-.02.76-.07 2.27-.09 3.02l1.01.03c.21 5.28.2 10.56.01 15.85l-1.07-.01c.06.77.16 2.29.21 3.05l-1.08-.08c.15 2.99-2.2 5.24-3.69 7.6-2.63 3.09-5.62 6.15-9.43 7.74l-.17.99c-.46-.08-1.37-.25-1.83-.33l-.09 1.39-1.88-.4-.08 1.06c-1.63.49-3.25 1.01-4.95 1.24l.02.67c-2.25.3-4.42.98-6.61 1.5-9.07 1.83-18.5 2.34-27.64.79-1.27-.11-2.54-.14-3.8-.11l.23-.98-5.32.06.23-1.12c-1.42.04-2.84.08-4.25.11l.3-.96c-4.02.22-7.26-2.48-11.01-3.29l-.14-.95c-.44.06-1.31.16-1.75.22l-.22-.97c-2.58-.55-4.48-2.48-6.78-3.61-1.36-2.56 1.35-4.82 2.54-6.86 1.94-3.9 4.68-7.35 6.52-11.3.66.46 1.33.92 2.01 1.38 1.11.49 2.12 1.15 3.03 1.99.5.25 1.5.76 2 1.02 1.38.5 2.75 1.09 3.93 2.03 4.29.98 8.31 3.44 12.85 3.19l-.24.93c7.43.06 14.85.17 22.28-.02l-.21-1.03c1.4.02 2.8.07 4.21.13l-.18-1.41c.51.13 1.53.41 2.03.55l.23-1.3c.36.05 1.07.17 1.43.23 1.62-1.62 3.6-2.94 4.65-5.02h.73c-.35-1.32-.09-2.45.81-3.38.03-.95.11-2.84.14-3.79l-1.31.15c.14-.53.41-1.59.55-2.11l-1.49.08.36-1.82c-1.35-.34-3.3-.09-3.25-2.05-1.16.03-2.21-.26-3.16-.86-2.29-.76-4.67-1.17-6.92-2.03-1.89-.18-3.78-.28-5.67-.36l-.04-.85c-2.47.12-5.04.3-7.33-.8-1.9-.14-3.8-.22-5.71-.26l.11-.9c-3.88.43-7.38-1.53-11.12-2.13l.1-.86c-2.01.09-3.78-.84-5.43-1.84-3.72-2.08-7.82-4.33-9.93-8.18h-.62c-.55-1.01-.98-2.06-1.3-3.15l-1.09-.09c.1-.45.3-1.37.39-1.82l-1-.05c-2.96-8.52-2.65-18.12 1.59-26.15 1.92-3.88 5.09-6.86 8.2-9.76l.93-.21c4.09-3.08 9.03-5.73 14.22-5.96l-.16-.88zm218.74-.25c1.78-1.08 3.92-.8 5.91-.89 5.46-.01 10.94-.15 16.4.28l.04.78c1.48-.1 3.02-.04 4.35.75 1.06.19 2.08.53 3.06 1.02 8.36 2.65 14.85 8.8 20.54 15.23l.19.96c1.34 1.5 2.79 3.05 3.1 5.15l.99.14c-.08.47-.23 1.41-.3 1.88l1.38.08c-.08.39-.25 1.17-.34 1.56 1.93 1.9 2.07 4.84 3.11 7.25.99 2.27 1.1 4.75 1.06 7.21l.94-.3c-.09 2.24.1 4.48.58 6.69.56 4.5.13 9.07.13 13.61-25.99-.06-51.97.12-77.96-.1-.32 3.12 1.15 5.98 1.32 9.06l1.18-.2c-.13.52-.38 1.54-.51 2.05l1.36.1c-.06.41-.17 1.25-.23 1.67 2.35 1.8 3.27 4.85 5.66 6.62 2.49 1.96 5.08 4.13 8.27 4.8l.2 1.05c.49-.17 1.47-.5 1.96-.66l-.15 1.32c2.94-.29 5.65 1.14 8.57 1.07 3.4 0 6.81-.01 10.22-.09 1.42-1.19 3.3-.92 5.03-.98 1.07-1.47 2.94-.8 4.46-.9l-.24-1.42c.52.16 1.56.46 2.08.61l.13-1.03c3.89-1.04 7.36-3.28 10.55-5.67.73-.55 2.33-1.18 2.86-.06 2.52 4.13 5.23 8.15 7.98 12.13.65 1.04 1.97 2.06 1.51 3.48-1.34 1.4-3.14 2.22-4.76 3.24-1.17 1.04-2.6 1.75-3.76 2.81-.39-.02-1.18-.05-1.58-.07l-.09 1.29-1.81-.4-.24 1.34c-.35-.05-1.07-.16-1.43-.22-2.52 1.95-5.82 2.68-8.9 3.31-1.62 1.19-3.75.71-5.6.78l.25.95c-1.59.02-3.18.09-4.76.22-2.81 1.04-5.88.61-8.8.75-3.01-.11-6.16.32-9-.87-1.55-.08-3.07-.12-4.6-.13l.14-.88c-2.45.08-4.8-.55-7.14-1.18l.15-.79c-1.45.2-2.61-.2-3.5-1.19l-1.47.32-.07-1.02c-2.84-.54-5.06-2.46-7.39-4-2.55-1.71-4.78-3.88-6.92-6.05-2.1-2.51-4.83-4.73-5.91-7.92-1.91-2.36-3.61-5.23-3.93-8.29h-.93l-.04-3.08-.84.08c-.41-3.89-2.15-7.54-2.19-11.49-.05-9.68-.91-19.68 2.73-28.88.55-1.49 1.06-2.98 1.42-4.51l.84-.08c-.12-2.46 1.78-4.34 2.86-6.38 1.67-3.17 4.17-5.72 6.48-8.41 3.66-3.11 7.03-7.05 11.8-8.43l.13-1.13c.44.12 1.33.36 1.77.49l.22-1.09c1.62-.53 3.24-1.03 4.93-1.32l-.04-.76c.64-.05 1.93-.14 2.57-.19 1.09-1.02 2.63-.9 4.02-1.07m-14.44 34.53c-.52 1.58-.97 3.19-1.29 4.83l-.8-.17c-.07 1.74-.16 3.49-.26 5.25 18.36-.09 36.73-.01 55.1-.04.01-.81.02-2.43.03-3.24l-.94.27c-.19-2.13-.79-4.19-1.26-6.25l-.64-.1c-1.22-5.25-5.27-9.22-9.22-12.61-1.9-.89-3.7-2.12-5.81-2.4v-.65c-5.04-.97-10.13-1.17-15.25-1.11l.17.91c-8.98.4-16.08 7.64-19.83 15.31zm140.48-34.67c4.42-1.4 9.16-.53 13.73-.78 3.94-.23 7.57 1.56 11.44 1.94-.54 1.34-.79 2.78-1.01 4.22l-.79-.06v3.09l-.99-.1c0 .79-.01 2.35-.01 3.13l-1.04-.12c.03.76.08 2.28.11 3.04l-1-.05c.07 3.2-1.53 6.04-2.49 9.01-.18-.49-.54-1.49-.72-1.99-.74.07-2.23.21-2.97.27l.15-1.22c-1.78.06-3.55.1-5.32.12l.34-1.09c-2.72.17-5.44.17-8.15 0l-.02.94c-1.68.03-3.36.07-5.03.1l.01.78c-4.9.97-9.09 4.64-11.1 9.18l-.71-.09c-.32 1.67-.76 3.33-1.14 5l-.95.01c.43 3.55-1.01 6.94-.89 10.48.12 19.95-.15 39.9.14 59.85-7.46-.23-14.93-.15-22.4-.04.22-34.77.14-69.55.04-104.32 7.4.11 14.81.13 22.21-.01-.13 4.09.01 8.19-.2 12.28l2.26-.27-.44-1.36c3.54-3.82 7.03-8.46 12.32-9.81l.05-.74c1.56-.32 3.08-.81 4.57-1.39zm75.92.24c1.04-.92 2.47-.85 3.79-.92 5.36-.16 10.72-.05 16.09-.09 4.61-.05 8.99 1.61 13.51 2.3l.01.75c1.92.16 3.94.63 5.34 2.08l1.42-.12.26.95c.58.21 1.75.61 2.34.82.94.72 1.93 1.42 2.94 2.11 1.35.91 2.71 1.83 4.12 2.69-2.53 4.74-5.26 9.43-8.25 13.89-.69 1.51-1.67 5.19-3.9 3.31-2.89-2.48-6.65-3.48-9.65-5.67-.4.12-1.21.37-1.61.49l.13-1.24c-1.55-.19-3.26.03-4.53-1.01a50.34 50.34 0 0 0-4.58-.23l-.01-.95c-3.73.22-7.45.19-11.17.02l.3 1.06c-1.43-.02-2.84-.04-4.25-.05l.09 1.06c-.75-.03-2.24-.08-2.99-.11-.06.34-.19 1.02-.25 1.37l-1.66-.59-.16 1.36c-.41-.04-1.22-.13-1.63-.18-2.99 2.82-6.72 4.82-9.09 8.31-2.29 3.62-4.86 7.41-5.18 11.81l-.98-.18c-.26 6.74-.41 13.46.04 20.2l.76-.12c.34 2.06 1.05 4.04 1.35 6.13l.7-.23c.36 1.78 1.51 3.23 2.27 4.86 4.13 5.06 9.12 10.09 15.77 11.43l-.04.68c6.3 1.47 12.74 1.12 19.18 1.1l-.24-.89c3.27.16 6.02-1.93 9.22-2.19l.02-1.06c.4.04 1.2.13 1.6.17 2.27-1.58 4.64-3.12 7.22-4.14.21-.43.61-1.31.82-1.75 2.69 5.76 6.39 11.05 9.58 16.57 2.65 2.88-2.22 4.19-4 5.62-3.06 2.1-6.37 4.02-9.96 4.97-.88.64-1.87.99-2.97 1.07-1.1.89-2.56.78-3.86.93-7.67 1.96-15.98 2.53-23.74.97-1.64-.12-3.27-.18-4.89-.2l.21-.96c-1.9.01-4.03.44-5.51-1.06-.42.1-1.26.3-1.69.41l.22-1.3c-3 .58-5.2-1.79-7.97-2.21l-.17-.72c-1.94-.55-3.58-1.72-5.18-2.86-1.82-1.19-3.52-2.54-5.03-4.08-1.66-.96-3.05-2.28-3.95-3.96-3.92-4.38-7.75-9.5-8.94-15.33l-.75.1c-.5-1.89-.97-3.78-1.41-5.67-1.22-1.57-.76-3.69-.74-5.49l-.93.12c-.24-8.7-.72-17.48 1-26.06l.93.15c-.18-1.57-.09-3.08.65-4.45.54-1.49 1.07-2.97 1.44-4.49l.86-.11c-.3-1.56 1.05-2.65 1.19-4.1l1.03.05-.24-1.47c5.15-6.94 10.93-14.32 19.13-17.69l.18-1.07c.45.08 1.37.25 1.83.33l.1-1.35c.38.08 1.13.23 1.51.3 2.65-2 6.12-3.11 9.46-3.16l-.07-.89c1.18-.02 2.36-.07 3.56-.14zm100.28.25c9.21-1.82 18.87-1.9 28.08.03l.04.68c1.19.06 2.32.35 3.41.87 1.43.42 2.74 1.14 3.9 2.13 2.27.33 3.63 2.49 5.66 3.4l.05.56c1.84.86 3.36 2.28 4.22 4.15l.8.08v1.18c.48-.02 1.44-.05 1.92-.06-.18-4.09-.06-8.18-.18-12.25 7.38.22 14.77.09 22.17.07-.09 34.75-.15 69.5.02 104.25-7.41-.02-14.83-.17-22.24.08.24-4.7.06-9.42.14-14.11-2.95 5.04-7.69 8.94-12.75 11.77l-1.12.16-.13.85c-1.63.49-3.25 1.04-4.93 1.24l.14.8c-.67.06-2.02.18-2.7.23-1.45 1.06-3.34.82-5 1.07-4.74 1.14-10.09 1.14-14.8-.13-1.54-.1-3.07-.15-4.58-.18l.01-.87c-1.49-.15-3.15.22-4.37-.8-1.65-.82-4.17-.38-4.92-2.4l-1.71.44.14-1.19c-1.73.13-3.02-.94-4.32-1.82-1.13-.59-2.15-1.31-3.15-2.06-4.08-3.13-7.98-6.73-10.91-10.96-5.62-7.14-8.94-16.03-10.09-25-.95-5.66-1.42-11.83.11-17.37.15-1.66.11-3.33.11-4.97l1.03.12c-.15-3.64.94-7.49 3.06-10.41-.05-.43-.15-1.29-.21-1.72l1.17.15c-.2-1.7.55-3.35 1.88-4.38.6-2.19 2.33-3.78 3.43-5.71l.49-.09c2.96-4.71 7.53-8.19 12.07-11.31 2.59-1.54 5.1-3.47 8.19-3.84v-.69c1.96-.65 3.97-1.19 6.06-1.26l-.19-.73m7.03 20.04l.1.76c-1.61.39-3.21.81-4.79 1.26-2.18 1.95-4.95 3.17-7.19 5.1l-.02.76-.75.02c-.26.32-.77.97-1.03 1.29-2.74 3.48-5.57 7.24-6.32 11.7l-.82-.13c-.06 1.36-.11 2.74-.15 4.13l-.87-.03c-.23 5.69-.06 11.39-.03 17.09l1.06-.14c.01.66.01 1.98.01 2.64.83.99 1.2 2.18 1.13 3.57l1.07-.08c-.12.47-.36 1.39-.48 1.85l1.4.3c-.08.36-.25 1.07-.33 1.43 4.4 5.72 9.59 11.92 17.08 13.43l-.08.71c1.46.02 2.96.27 4.31.94 4.61.45 9.24.11 13.87.21v-.9c.68-.06 2.06-.18 2.74-.25.93-.45 1.9-.8 2.91-1.05 1.92-1.14 3.87-2.23 5.92-3.13.44-1.02 1.22-1.63 2.34-1.82l-.06-.86 1.06.06v-1.02l.72-.02 1.08-1.24c.82-1.24 1.65-2.47 2.46-3.7l.71-.04c.02-2.2 2.17-3.65 2.1-5.89l.86.05.08-3.16.99.03c-.04-1.37-.06-2.73-.05-4.08l1.01.21c-.19-3.92-.01-7.85-.17-11.77-.93-2.03-.92-4.32-.82-6.48l-.94.11c-.39-1.68-.82-3.35-1.13-5.03l-1.07-.03c.06-.41.17-1.25.22-1.66-1.89-1.35-2.36-3.8-4.1-5.28-3.32-3.85-7.54-6.81-12.22-8.76-2.17-.74-4.39-1.44-6.7-1.3l.08-.93c-5.14-.15-10.14.51-15.19 1.13zm135.06-21.08c7.37-.42 14.79-.53 22.03 1.02l-.03 1.01c.6-.11 1.81-.32 2.41-.43-1.16 4.27-2.63 8.47-4.02 12.68-.27 1.03-.6 2.04-.98 3.05a6.886 6.886 0 0 1-1.2 2.95c-.07.72-.22 2.15-.3 2.87-1.67-.82-3.7-.85-5.15-2.05-5.96-.55-11.92-.5-17.87-.01l.13 1.27c-.48-.15-1.43-.45-1.9-.6l-.33 1.38c-.43-.09-1.29-.27-1.73-.37l-.07.85c-3.55 1.91-5.54 5.44-7.76 8.57.04 1.21-.32 2.26-1.09 3.13l-.04 2.69-.99-.19c-.4 22.76-.24 45.53-.13 68.3-7.41 0-14.82-.17-22.22.1.22-34.8.15-69.61.04-104.41 7.15.18 14.3.18 21.45 0-.13 4.08-.01 8.17-.18 12.26.43-.03 1.29-.08 1.71-.1.98-2.29 2.97-3.87 4.49-5.77 3.05-2.77 6.29-5.69 10.46-6.56.89-.8 1.99-1.08 3.31-.82l-.04-.82zm175.03 91.89c3.99-.42 8.67.08 11.25 3.58 2.75 2.75 1.73 6.87 1.84 10.36l-1.01.05c-.15 2.83-3.38 5.15-6.12 5.21v.86c-2.66.13-5.31-.07-7.79-1.04l-.18-.69c-2.31-.65-3.68-2.75-4.38-4.89-1.17-1.89-.54-4.27-.69-6.35l.95.06c-.05-3.23 3.01-6.2 6.2-6.28l-.07-.87m1.02 2.54c-.43-.17-1.28-.49-1.7-.65-1.47 1.74-3.76 3.05-4.16 5.48-.65 2.58-.14 5.28.89 7.71.93.76 1.89 1.5 2.94 2.17l-.06.76c2.66.15 5.34.19 8.01-.02 1.63-1.78 4.18-3.23 4.18-5.94l.79.12c0-1.05.01-3.16.02-4.21l-.96.08v-2.8c-2.3-.72-3.34-3.51-5.99-3.33l.09-.75c-1.06-.03-3.18-.07-4.24-.1l.19 1.48z"/><path d="M1252.33 979.62c1.83-.03 3.71-.03 5.52.41 2.67.24 2.74 5.81-.57 4.71l.32 2.51c.87.45 1.75.93 2.62 1.44-3.47 1.11-3.59-3.43-6.63-3.71.01 1.11.03 3.35.03 4.47-.29-.16-.89-.49-1.19-.65-.23-3.06-.04-6.13-.1-9.18m1.1.62c.03 1.09.11 3.28.15 4.38 1.86-.38 5.5-.04 5.12-3.05-1.74-.53-3.54-.96-5.27-1.33z"/></g><path d="M866.46 0h36.81c38.35 2.05 76.49 9.17 112.71 22.03 78.79 27.53 148.1 80.99 195.14 149.89 21.31 31.11 38.16 65.28 49.77 101.16 11.69 35.9 17.95 73.5 19.11 111.22v21.39c-1.15 38.26-7.57 76.39-19.56 112.75-12.17 37.2-30.01 72.51-52.58 104.48-39.88 56.55-94.8 102.42-157.69 131.34-79.01 36.71-170.33 45.76-255.14 26.05-56.09-13.07-109.52-38.34-154.55-74.31 10.63-9.2 21.58-18.08 31.52-28.07 45.89-44.73 80.73-100.74 100.27-161.79 23.56-73.07 25.1-153.04 4.53-227-21.71-78.78-68.8-150.26-132.47-201.47-1.39-1.11-2.57-2.45-3.7-3.81 30.87-24.31 65.44-43.89 102.11-57.98C782.22 10.61 824.2 2.1 866.46 0zm368.26 624.73c4.34.01 8.69.01 13.05.01 0 .64 0 1.94.01 2.58-1.75 0-3.44.01-5.15.02.02 4.23 0 8.46.02 12.69-.7.02-2.11.04-2.81.05v-12.76c-1.73 0-3.44 0-5.14.01.01-.65.02-1.95.02-2.6zm16.06-.02c1.35.02 2.72.05 4.11.07 1.43 3.51 2.9 7.02 4.63 10.41 1.42-3.52 2.99-6.97 4.49-10.44 1.33-.02 2.66-.02 4.02-.02 0 5.11-.01 10.22 0 15.33-.7 0-2.1.01-2.8.01-.02-3.76.02-7.51-.04-11.27-1.59 3.13-2.92 6.37-4.24 9.62-.75.01-2.26.04-3.01.05-1.41-3.27-2.74-6.57-4.32-9.75-.04 3.78-.01 7.56-.01 11.35-.71-.01-2.12-.01-2.83-.01-.01-5.12 0-10.24 0-15.35z" fill="#f79e1b"/><path fill="#ff5f00" d="M640.12 84.3l.51-.44c1.13 1.36 2.31 2.7 3.7 3.81C708 138.88 755.09 210.36 776.8 289.14c20.57 73.96 19.03 153.93-4.53 227C752.73 577.19 717.89 633.2 672 677.93c-9.94 9.99-20.89 18.87-31.52 28.07l-.27.23c-4.18-4.34-9.22-7.7-13.65-11.76-41.18-35.48-74.94-79.54-98.44-128.56-31.69-65.7-44.27-140.32-36.51-212.81 7.55-73.15 36.34-143.89 81.8-201.69 19.43-24.96 42.12-47.26 66.71-67.11z"/></svg>