<svg width="21" height="21" viewBox="0 0 210 210" xmlns="http://www.w3.org/2000/svg"><path fill="#fff" d="M104.99 83.78C130.92 57.86 156.85 31.93 182.77 6c7.07 7.07 14.15 14.14 21.21 21.23-25.93 25.92-51.85 51.84-77.77 77.77 25.92 25.93 51.85 51.85 77.77 77.77-7.06 7.08-14.14 14.14-21.2 21.22-25.93-25.92-51.85-51.85-77.79-77.78-25.93 25.92-51.85 51.86-77.78 77.78L6 182.78c25.92-25.93 51.86-51.85 77.78-77.78C57.86 79.06 31.92 53.15 6 27.22c7.07-7.07 14.14-14.15 21.21-21.21 25.93 25.92 51.85 51.85 77.78 77.77z"/></svg>