<svg width="850" height="850" class="steps--speedometer" xmlns="http://www.w3.org/2000/svg"><path d="M421.46 87.72c.08-10.33.01-20.67.04-31.01 1.97.01 3.94.01 5.92.01.03 10.32-.04 20.64.04 30.96-2.01.01-4.01.03-6 .04zM356.63 62.8c3.41-.16 6.7-1.17 10.07-1.69.58 1.96.96 3.96 1.45 5.94.35 3.73 1.13 7.39 1.74 11.08 1.2 6.81 2.32 13.64 3.76 20.41-3.6 1.17-7.43 1.32-11.05 2.46-.47-.11-1.41-.34-1.87-.45-.65-2.84-1.15-5.7-1.48-8.59-1.71-9.38-3.31-18.78-5.08-28.15.61-.25 1.84-.76 2.46-1.01zm125.81-1.72c4 .57 7.94 1.53 11.98 1.84.08 1.7.13 3.43-.38 5.08-.71 3.68-1.35 7.38-1.81 11.09-1.72 7.1-2.4 14.39-3.9 21.53-1.84.09-3.66-.32-5.47-.54-2.59-.47-5.18-.9-7.7-1.63.33-.83.67-1.66 1.03-2.48.97-8.44 2.83-16.77 4.2-25.15.43-3.3 1.08-6.56 2.05-9.74zM296.11 79.8c1.75-.5 3.49-1.05 5.24-1.57 3.31 9.69 7.12 19.19 10.35 28.91-1.77.55-3.52 1.14-5.28 1.71-3.33-9.72-7.06-19.31-10.31-29.05zm251.92-1.74c1.66.58 3.33 1.18 4.99 1.78-3.71 9.6-6.75 19.46-10.79 28.91-1.58-.77-3.14-1.55-4.7-2.34 3.92-9.3 6.8-18.98 10.5-28.35zM235.08 109.5c3.71-2 7.41-4.06 10.95-6.36 5.99 11.24 12.58 22.17 18.89 33.23-3.76 2.06-7.58 4.02-11.1 6.48-5.9-11.3-12.9-22.02-18.74-33.35zm367.87-6.5c3.98 1.77 7.43 4.6 11.59 6-6.15 10.09-11.93 20.51-17.8 30.81-.51.8-1.37 2.77-2.58 1.74-3.33-1.79-6.53-3.82-9.86-5.59 6.1-11.05 12.85-21.75 18.65-32.96zM186.8 144.13c1.17-.8 2.35-1.58 3.55-2.34 6.43 7.81 13.09 15.44 19.4 23.35-1.32 1.55-3.19 2.52-4.79 3.76-.17-.46-.5-1.39-.67-1.85-6.51-6.76-11.8-14.59-18.3-21.36.2-.39.61-1.17.81-1.56zm462.95 8.31c3.16-3.67 6.22-7.43 9.21-11.24 1.49 1.31 3.05 2.55 4.63 3.76-7.36 7.43-13.23 16.19-20.47 23.73a331.65 331.65 0 0 0-3.66-3.78c3.27-4.29 7-8.2 10.29-12.47zm-510.93 42.29c1.77-4.01 5.22-6.93 7.88-10.35 9.47 8.47 19.59 16.19 28.97 24.76a71.446 71.446 0 0 0-7.97 9.48c-9.85-7.67-18.99-16.28-28.88-23.89zm563.45-10.67c3.56 2.28 5.76 6.58 8.66 9.74-7.09 5.34-13.59 11.44-20.54 16.96-2.8 2.47-5.8 4.69-8.43 7.34-2.56-3.44-5.89-6.31-8-10.04 9.39-8.05 19.01-15.85 28.31-24zm12.79 70.61c9.04-5.11 17.91-10.54 27.01-15.54 1.34 1.41 2.03 3.27 2.87 4.99-9.17 4.81-18.01 10.23-26.92 15.51-.93-1.69-1.88-3.37-2.96-4.96zm-610.65-9.85c.9-1.98 2.01-3.86 3.34-5.59 8.48 5.64 17.69 10.08 26.25 15.61-1.25 1.53-1.86 4.32-3.95 4.7-8.49-5.01-16.85-10.29-25.64-14.72zm628.6 62.07c12.08-4.06 23.88-8.98 36.01-12.86.99 4.14 2.89 8 3.88 12.14-5.59 2.02-11.15 4.07-16.75 6.04-5.14 1.85-10.13 4.12-15.4 5.58-.99.53-1.97 1.08-2.94 1.62-1.13-2.08-1.99-4.3-2.59-6.59-.7-1.99-1.46-3.96-2.21-5.93zM80.87 294.52c5.91 2.38 11.94 4.43 17.89 6.7 4.51 1.57 9.04 3.14 13.46 4.97 1.5.47 2.99.95 4.49 1.43-1.71 3.91-2.87 8.03-4.6 11.92-7.43-1.9-14.58-5.18-21.85-7.73-4.46-1.62-9.01-3.03-13.38-4.85.17-4.35 2.94-8.24 3.99-12.44zM772 362.09c5.07-.86 10.12-1.86 15.18-2.84.16 1.97.43 3.94.73 5.91-3.64.52-7.23 1.28-10.87 1.77-1.68.4-3.39.7-5.05 1.13-3.72.42-7.39 1.12-11.03 1.9-1.43.26-2.85.5-4.27.73-.07-2.08-.13-4.18-1.07-6.08 1.79-.12 3.63-.17 5.4-.63 2.02-.32 4.05-.64 6.06-1.05 1.63-.33 3.26-.59 4.92-.84zm-710.72 3.46c.69-1.97 1.1-4.01 1.48-6.05 4.74.85 9.46 1.77 14.2 2.64 5.5.71 10.88 2.18 16.42 2.56-.92 2.12-1.07 4.41-1.12 6.7-10.29-2.14-20.75-3.44-30.98-5.85zm693.89 54.76c12.73.05 25.46-.06 38.18.06-.05 4.38-.05 8.77.01 13.16-12.74.09-25.47 0-38.2.05.04-4.43.03-8.85.01-13.27zm-698.65.78c12.65-.08 25.31.34 37.95-.25.06 4.51.03 9.02.03 13.53-12.66-.01-25.32-.03-37.99.01-.01-4.43-.01-8.86.01-13.29zm11.52 65.94c7.98-1.82 16.12-2.9 24.15-4.55.29 2.24.75 4.45 1.19 6.66-3.78.62-7.53 1.4-11.34 1.82-1.66.41-3.35.71-5.01 1.14-3.72.49-7.4 1.2-11.09 1.85-1.15.25-2.29.52-3.44.81-.11-2.33-.46-4.64-1.07-6.88 2.21-.26 4.41-.56 6.61-.85zm687.68.32c.69-1.57.9-3.27 1.03-4.95.83.21 2.49.63 3.33.84 6.97 1.07 13.94 2.31 20.85 3.79 2.25.3 4.51.61 6.79.74.64 2.03-.18 4.04-.56 6.03-1.79-.3-3.58-.59-5.35-.87-3.27-.8-6.57-1.37-9.88-1.93-2.04-.32-4.08-.65-6.1-1.01-1.62-.36-3.26-.63-4.88-.9-1.39-.25-2.77-.46-4.15-.63l-1.08-1.11zm-18.05 46.84c12 4.51 24.2 8.53 36.05 13.4-2.25 3.78-2.82 8.32-5.31 11.97-11.61-4.91-23.65-8.7-35.39-13.28.65-1.45 1.32-2.88 1.97-4.32.7-2.66 1.63-5.24 2.68-7.77zM77.39 547.83c11.6-4.54 23.45-8.46 35.06-13 1.48 4.15 3 8.28 4.48 12.44-12.12 3.98-23.86 9.14-36.09 12.74-.83-4.09-3.94-8-3.45-12.18zm51.6 47.11c.88-.59 1.97-.48 2.97-.57.71 1.61 1.45 3.21 2.18 4.82-8.42 5.7-17.62 10.16-26.21 15.61-1.9-1.34-2.48-3.73-3.47-5.69 8.24-4.61 16.36-9.44 24.53-14.17zm588.96-1.46c9.02 5.67 18.46 10.67 27.52 16.28-.89 1.42-1.79 2.83-2.66 4.27-9.6-4.49-18.32-10.67-27.72-15.58.95-1.66 1.93-3.3 2.86-4.97zm-563.47 53.93c4.57-3.74 8.83-7.84 13.58-11.36 2.72 3.38 5.53 6.7 8.37 9.99-8.62 6.35-16.37 13.8-24.71 20.5-1.63 1.09-3.14 3.68-5.31 3.13-2.54-2.91-4.8-6.06-7.42-8.91 4.84-4.81 10.33-8.89 15.49-13.35zm519.58-2.18c2.78-3.25 5.65-6.41 8.16-9.88 9.85 8.11 19.51 16.46 29.37 24.55-2.87 3.37-5.67 6.8-8.55 10.17-9.19-8.79-19.45-16.41-28.98-24.84z" fill="#55afed"/></svg>