<svg xmlns="http://www.w3.org/2000/svg" width="36" height="36" viewBox="0 0 455 455"><path d="M95.026 298.424c-8.271 0-15 6.729-15 15s6.729 15 15 15 15-6.729 15-15-6.728-15-15-15zm208.305-141.848c8.271 0 15-6.729 15-15s-6.729-15-15-15-15 6.729-15 15 6.729 15 15 15z"/><path d="M308.333 0L146.667 43.128 0 0v411.872L146.667 455l161.667-43.128L455 455V43.128L308.333 0zm38.679 328.424H137.446c-6.192 17.458-22.865 30-42.42 30-24.813 0-45-20.187-45-45s20.187-45 45-45c19.555 0 36.228 12.542 42.42 30h209.565c15.418 0 27.962-12.543 27.962-27.962S362.43 242.5 347.012 242.5H190.387c-31.96 0-57.962-26.001-57.962-57.962s26.002-57.962 57.962-57.962h70.524c6.192-17.458 22.865-30 42.42-30 24.813 0 45 20.187 45 45s-20.187 45-45 45c-19.555 0-36.228-12.542-42.42-30h-70.524c-15.418 0-27.962 12.543-27.962 27.962s12.544 27.962 27.962 27.962h156.625c31.96 0 57.962 26.001 57.962 57.962s-26.002 57.962-57.962 57.962z"/></svg>