<svg xmlns="http://www.w3.org/2000/svg" width="44" height="44" viewBox="0 0 431.789 431.789"><path d="M422.438 151.93H390.77c-2.412 0-4.73.932-6.471 2.6l-6.76 6.476c-11.395-26.366-27.742-52.439-49.822-79.432-11.936-14.585-29.586-22.949-48.43-22.949H152.501c-18.846 0-36.497 8.365-48.426 22.95-22.777 27.842-38.799 53.287-49.924 79.338l-6.66-6.383a9.356 9.356 0 0 0-6.472-2.6H9.353A9.352 9.352 0 0 0 0 161.283v21.651a9.354 9.354 0 0 0 8.765 9.334l32.549 2.05c-4.918 14.371-8.758 35.786-8.758 65.987 0 26.205 5.234 43.428 14.343 54.578v50.449a7.832 7.832 0 0 0 7.833 7.832h36.029a7.833 7.833 0 0 0 7.836-7.832v-31.328h234.596v31.328a7.833 7.833 0 0 0 7.834 7.832h36.029a7.833 7.833 0 0 0 7.834-7.832v-50.449c9.107-11.15 14.344-28.373 14.344-54.578 0-30.201-3.84-51.616-8.758-65.987l32.549-2.05a9.354 9.354 0 0 0 8.764-9.334v-21.651a9.35 9.35 0 0 0-9.351-9.353zm-291.632-48.488a27.93 27.93 0 0 1 21.695-10.283h126.786a27.933 27.933 0 0 1 21.697 10.283c15.447 18.883 27.646 36.954 37.074 54.955l-244.543.046c9.222-17.601 21.49-35.687 37.291-55.001zm-26.649 192.251c-17.933 0-32.469-5.857-32.469-20.066 0-14.208 5.274-25.729 23.206-25.729s41.73 11.521 41.73 25.729-14.537 20.066-32.467 20.066zm145.773-2.961h-68.069c-10.262 0-18.61-8.348-18.61-18.609a5.213 5.213 0 0 1 5.214-5.212h94.863a5.211 5.211 0 0 1 5.211 5.212c0 10.262-8.348 18.609-18.609 18.609zm77.703 2.961c-17.932 0-32.469-5.857-32.469-20.066 0-14.208 23.801-25.729 41.73-25.729 17.932 0 23.207 11.521 23.207 25.729s-14.535 20.066-32.468 20.066z"/></svg>