<svg xmlns="http://www.w3.org/2000/svg" width="38" height="38" viewBox="0 0 297 297"><path d="M97.674 94.493c.059-.02 5.637-1.733 5.637-1.733a7.875 7.875 0 0 1 9.71 4.832l7.635 20.95 7.635-20.951a7.88 7.88 0 0 1 9.71-4.831s5.578 1.713 5.637 1.733a23.112 23.112 0 0 1 15.549 18.37V50.76a5.76 5.76 0 0 0-5.76-5.76H87.885a5.76 5.76 0 0 0-5.76 5.76v62.103a23.114 23.114 0 0 1 15.549-18.37zm22.982-41.126c10.235 0 18.563 8.327 18.563 18.563 0 10.235-8.327 18.563-18.563 18.563s-18.563-8.327-18.563-18.563c.001-10.236 8.328-18.563 18.563-18.563z"/><path d="M140.425 110.297l-8.516 23.367h11.81v-17.209a7.39 7.39 0 0 0-3.294-6.158zm-42.831 6.158v17.209h11.81l-8.516-23.367a7.39 7.39 0 0 0-3.294 6.158z"/><path d="M249.375 0H47.625c-5.799 0-10.5 4.701-10.5 10.5v276c0 5.799 4.701 10.5 10.5 10.5h201.75c5.799 0 10.5-4.701 10.5-10.5v-276c0-5.799-4.701-10.5-10.5-10.5zm-183 37.125a7.875 7.875 0 0 1 7.875-7.875h92.812a7.875 7.875 0 0 1 7.875 7.875v104.414a7.875 7.875 0 0 1-7.875 7.875H74.25a7.875 7.875 0 0 1-7.875-7.875V37.125zM222.75 249.188H74.25a7.875 7.875 0 0 1 0-15.75h148.5a7.875 7.875 0 0 1 0 15.75zm0-55.688H74.25a7.875 7.875 0 0 1 0-15.75h148.5a7.875 7.875 0 0 1 0 15.75zm0-74.25h-18.563a7.875 7.875 0 0 1 0-15.75h18.563a7.875 7.875 0 0 1 0 15.75zm0-37.125h-18.563a7.875 7.875 0 0 1 0-15.75h18.563a7.875 7.875 0 0 1 0 15.75z"/></svg>