<svg xmlns="http://www.w3.org/2000/svg" width="37" height="37" viewBox="0 0 503.497 503.497"><path d="M439.405 71.786h-48.552a2.208 2.208 0 0 0-2.207 2.207v13.241c0 1.218.989 2.207 2.207 2.207h48.552a2.208 2.208 0 0 0 2.207-2.207V73.993a2.208 2.208 0 0 0-2.207-2.207z"/><path d="M503.172 62.958c0-11.829-4.281-22.034-12.729-30.323-23.773-23.322-73.56-22.607-75.379-22.643-2.066-.018-51.747-.68-75.441 22.599-6.321 6.197-10.311 13.471-11.926 21.689-32.839 2.481-62.535 19.933-80.525 44.57V65.72c0-25.865-21.036-46.901-46.892-46.901H46.892C21.036 18.82 0 39.856 0 65.721v382.897c0 25.856 21.036 46.892 46.892 46.892h140.359c4.714 0 9.181-2.039 12.244-5.623 3.143-3.655 4.511-8.519 3.769-13.33-.53-3.54-.132-7.15 1.174-10.743 2.189-5.976 7.071-10.849 13.038-13.038 3.602-1.306 7.221-1.704 10.734-1.174 4.793.733 9.693-.627 13.339-3.769a16.075 16.075 0 0 0 5.623-12.244V147.314c2.41-40.386 41.366-70.921 79.448-75.211-.477 29.025.812 109.815 28.451 138.628 2.154 2.251 4.476 4.052 6.859 5.623v31.982c0 2.348.927 4.59 2.586 6.241l13.153 13.153-14.813 29.625a8.836 8.836 0 0 0-.468 6.735l16.278 48.878-15.254 22.881a8.826 8.826 0 0 0 .282 10.196l23.508 31.338-15.819 39.539a8.823 8.823 0 0 0 2.904 10.337l35.31 26.483c1.571 1.183 3.434 1.766 5.297 1.766s3.725-.583 5.297-1.766l35.31-26.483a8.822 8.822 0 0 0 2.904-10.337l-15.819-39.539 23.508-31.338a8.825 8.825 0 0 0 .282-10.196l-15.254-22.881L467.4 304.09a8.831 8.831 0 0 0-.468-6.735l-14.813-29.625 13.153-13.153a8.787 8.787 0 0 0 2.586-6.241v-31.841c2.481-1.598 4.882-3.434 7.115-5.764 32.013-33.359 28.676-136.491 28.199-147.773zM203.034 407.234c0 24.338-19.8 44.138-44.138 44.138h-70.62c-24.338 0-44.138-19.8-44.138-44.138V107.096c0-24.338 19.8-44.138 44.138-44.138h70.621c24.338 0 44.138 19.8 44.138 44.138v300.138zm247.173-162.551l-15.069 15.069a8.828 8.828 0 0 0-1.66 10.187l16.022 32.044-16.49 49.496a8.823 8.823 0 0 0 1.024 7.689l14.186 21.283-22.731 30.314a8.821 8.821 0 0 0-1.139 8.572l15.148 37.862-24.602 18.45-24.602-18.45 15.148-37.862a8.822 8.822 0 0 0-1.139-8.572l-22.731-30.314 14.186-21.283a8.823 8.823 0 0 0 1.024-7.689l-16.49-49.496 16.022-32.044a8.825 8.825 0 0 0-1.66-10.187l-15.069-15.069v-22.828h26.483v105.931c0 4.882 3.946 8.828 8.828 8.828s8.828-3.946 8.828-8.828V221.855h26.483v22.828zm9.057-157.449c0 10.946-8.907 19.862-19.862 19.862H390.85c-10.946 0-19.862-8.916-19.862-19.862V73.992c0-10.946 8.916-19.862 19.862-19.862h48.552c10.955 0 19.862 8.916 19.862 19.862v13.242z"/><path d="M158.897 80.61H88.276c-14.601 0-26.483 11.882-26.483 26.483v141.241h123.586V107.092c0-14.6-11.882-26.482-26.482-26.482zm8.827 125.245c0 8.819-7.177 15.996-15.996 15.996H95.444c-8.819 0-15.996-7.177-15.996-15.996v-38.621c0-8.819 7.177-15.996 15.996-15.996h1.66v-26.492c0-14.601 11.882-26.483 26.483-26.483s26.483 11.882 26.483 26.483v26.492h1.66c8.819 0 15.996 7.177 15.996 15.996v38.621z"/><path d="M132.414 124.752c0-4.873-3.955-8.828-8.828-8.828-4.873 0-8.828 3.955-8.828 8.828v26.483h17.655v-26.483zM97.103 168.89h52.966v35.31H97.103zm0 185.379h52.966v35.31H97.103z"/><path d="M61.793 407.23c0 14.61 11.882 26.492 26.483 26.492h70.621c14.601 0 26.483-11.882 26.483-26.492V265.989H61.793V407.23zm17.655-54.616c0-8.819 7.177-15.996 15.996-15.996h1.66v-26.483c0-14.61 11.882-26.483 26.483-26.483s26.483 11.873 26.483 26.483c0 4.873-3.946 8.819-8.828 8.819s-8.828-3.946-8.828-8.819c0-4.873-3.955-8.828-8.828-8.828-4.873 0-8.828 3.955-8.828 8.828v26.483h36.97c8.819 0 15.996 7.177 15.996 15.996v38.621c0 8.819-7.177 15.996-15.996 15.996H95.444c-8.819 0-15.996-7.177-15.996-15.996v-38.621z"/></svg>