<svg version="1.1" xmlns="http://www.w3.org/2000/svg" xmlns:xlink="http://www.w3.org/1999/xlink" x="0px" y="0px" width="40px" height="40px" viewBox="0 0 512 512" style="enable-background:new 0 0 512 512;" xml:space="preserve">
	<g fill="#ffffff">
		<path d="M160,256H92.521c-11.854,0-22.833,5.885-29.604,16.021l-34.354,55.146c-4.729,7.146-7.229,15.052-7.229,22.865
			c0,7.052,0.688,15.292,5.563,22.604L32,380.865v3.146c0,23.51,19.146,42.656,42.667,42.667l40.146,0.01v-10.667l1.479,13.125
			l-19.688,38.469c-2.146,4.24-3.271,8.99-3.271,13.74C93.333,498.25,107.083,512,124,512h4.708c2.771,0,5.438-1.083,7.438-3.021
			l75.896-73.781c14.375-13.979,22.625-33.5,22.625-53.542v-50.99C234.667,289.5,201.167,256,160,256z M213.333,381.656
			c0,14.323-5.896,28.26-16.167,38.25l-72.792,70.76H124c-5.146,0-9.333-4.177-9.333-9.313c0-1.427,0.333-2.865,0.958-4.073
			l19.646-38.385c3.708-7.188,3.396-15.594-0.813-22.49c-4.208-6.917-11.542-11.042-19.646-11.052l-40.146-0.01
			c-11.771-0.01-21.333-9.573-21.333-21.333v-6.188c0-1.99-0.563-3.938-1.604-5.625l-6.896-11.104
			c-1.542-2.313-2.167-5.51-2.167-11.063c0-3.563,1.313-7.49,3.854-11.323l34.333-55.125c2.604-3.917,6.979-6.25,11.667-6.25H160
			c29.417,0,53.333,23.927,53.333,53.333V381.656z"/>
		<path d="M330.667,256H288c-17.646,0-32,14.354-32,32v106.667c0,17.646,14.354,32,32,32h42.667c17.646,0,32-14.354,32-32V288
			C362.667,270.354,348.313,256,330.667,256z M341.333,394.667c0,5.885-4.792,10.667-10.667,10.667H288
			c-5.875,0-10.667-4.781-10.667-10.667V288c0-5.885,4.792-10.667,10.667-10.667h42.667c5.875,0,10.667,4.781,10.667,10.667
			V394.667z"/>
		<path d="M394.667,85.333H288c-5.896,0-10.667,4.771-10.667,10.667s4.771,10.667,10.667,10.667h106.667
			c5.896,0,10.667-4.771,10.667-10.667S400.563,85.333,394.667,85.333z"/>
		<path d="M352,149.333h-64c-5.896,0-10.667,4.771-10.667,10.667s4.771,10.667,10.667,10.667h64
			c5.896,0,10.667-4.771,10.667-10.667S357.896,149.333,352,149.333z"/>
		<path d="M341.333,0C259,0,192,52.635,192,117.333c0,25.958,10.875,50.938,30.875,71.375l-27.75,27.75
			c-3.042,3.052-3.958,7.635-2.313,11.625c1.646,3.99,5.542,6.583,9.854,6.583h138.667c82.333,0,149.333-52.635,149.333-117.333
			S423.667,0,341.333,0z M341.333,213.333H228.417L245.75,196c2.104-2.104,3.229-4.979,3.125-7.948
			c-0.125-2.969-1.479-5.76-3.729-7.688c-20.521-17.594-31.813-39.979-31.813-63.031c0-52.938,57.417-96,128-96s128,43.063,128,96
			S411.917,213.333,341.333,213.333z"/>
	</g>
</svg>
