<svg width="37px" height="29px" viewBox="0 0 1280 998" version="1.1" xmlns="http://www.w3.org/2000/svg">
<g id="#da031bff">
<path fill="#da031b" opacity="1.00" d=" M 378.28 0.00 L 415.35 0.00 C 464.17 2.59 512.60 13.82 557.23 33.88 C 577.83 43.10 597.66 54.05 616.38 66.67 C 624.45 72.31 632.80 77.69 640.12 84.30 C 615.53 104.15 592.84 126.45 573.41 151.41 C 527.95 209.21 499.16 279.95 491.61 353.10 C 483.85 425.59 496.43 500.21 528.12 565.91 C 551.62 614.93 585.38 658.99 626.56 694.47 C 630.99 698.53 636.03 701.89 640.21 706.23 C 608.67 730.89 573.47 750.91 536.00 765.03 C 459.25 794.18 373.34 798.40 294.05 777.21 C 222.33 758.26 156.38 718.40 106.03 663.96 C 58.53 612.95 24.86 549.15 9.87 481.06 C -7.42 403.25 -0.75 320.22 29.41 246.39 C 49.67 196.39 80.39 150.69 118.91 112.94 C 157.55 74.95 204.07 45.00 254.69 25.67 C 294.14 10.49 336.08 2.00 378.28 0.00 Z" />
<path fill="#da031b" opacity="1.00" d=" M 1195.24 842.28 C 1202.66 842.51 1210.09 842.38 1217.51 842.35 C 1217.37 891.13 1217.35 939.92 1217.52 988.70 C 1210.09 988.65 1202.65 988.53 1195.23 988.77 C 1195.47 984.12 1195.27 979.46 1195.40 974.82 C 1192.57 979.41 1188.30 982.90 1183.87 985.86 C 1183.27 986.08 1182.08 986.53 1181.49 986.75 L 1181.33 987.76 C 1180.97 987.68 1180.25 987.53 1179.89 987.45 C 1178.24 988.98 1175.98 989.37 1173.88 989.83 C 1172.39 990.75 1170.55 990.51 1168.92 990.77 C 1164.25 991.96 1159.00 991.86 1154.33 990.71 C 1152.60 990.41 1150.53 991.03 1149.15 989.76 C 1147.75 989.55 1146.41 989.36 1145.13 988.87 C 1143.64 988.19 1142.09 987.69 1140.50 987.45 L 1140.51 986.40 C 1140.02 986.48 1139.03 986.65 1138.54 986.73 L 1138.62 985.67 C 1135.05 985.22 1132.44 982.37 1129.52 980.55 C 1125.37 976.70 1120.98 972.86 1118.29 967.81 C 1116.38 965.48 1115.06 962.70 1114.20 959.84 C 1111.18 954.10 1110.28 947.38 1109.52 940.98 C 1109.61 936.76 1108.81 932.29 1110.34 928.28 C 1110.41 926.69 1110.43 925.10 1110.45 923.53 L 1111.41 923.63 C 1111.48 922.09 1111.04 920.33 1112.17 919.06 C 1112.20 917.94 1112.56 916.96 1113.22 916.12 C 1113.22 914.87 1113.67 913.86 1114.55 913.09 C 1114.46 912.72 1114.29 912.00 1114.20 911.64 L 1115.29 911.56 C 1115.30 909.85 1116.24 908.47 1117.26 907.21 C 1120.11 901.76 1124.30 896.96 1129.18 893.22 C 1134.54 889.12 1140.65 884.92 1147.54 884.39 L 1147.36 883.62 C 1150.57 883.18 1153.70 882.17 1156.98 882.34 C 1163.26 882.53 1169.93 881.54 1175.84 884.18 C 1176.90 884.36 1177.93 884.70 1178.91 885.20 C 1182.37 886.39 1185.36 888.54 1188.29 890.70 C 1189.83 892.13 1191.72 893.32 1192.78 895.21 C 1193.04 895.56 1193.57 896.27 1193.84 896.62 L 1195.43 896.65 C 1195.17 878.53 1195.54 860.40 1195.24 842.28 M 1154.42 903.64 L 1154.55 904.44 C 1149.82 904.88 1146.30 908.28 1142.53 910.78 L 1142.53 911.62 L 1141.62 911.45 C 1141.39 911.77 1140.92 912.42 1140.69 912.75 C 1138.22 916.37 1135.09 919.94 1134.50 924.44 L 1133.49 924.47 C 1133.50 925.79 1133.52 927.12 1133.55 928.46 L 1132.55 928.40 C 1132.45 934.14 1132.45 939.87 1132.60 945.61 L 1133.65 945.41 C 1133.62 946.10 1133.58 947.49 1133.55 948.19 C 1134.55 949.00 1134.90 950.14 1134.62 951.61 L 1135.77 951.54 C 1135.66 952.03 1135.45 953.00 1135.34 953.49 L 1136.73 953.59 C 1136.65 954.01 1136.49 954.83 1136.41 955.24 C 1138.26 956.52 1139.10 958.70 1140.56 960.36 C 1142.51 962.73 1145.04 964.51 1147.58 966.22 C 1149.46 967.20 1151.31 968.40 1153.49 968.59 L 1153.43 969.31 C 1154.87 969.34 1156.37 969.55 1157.70 970.25 C 1162.31 970.69 1166.96 970.36 1171.60 970.45 L 1171.58 969.49 C 1172.90 969.46 1174.24 969.45 1175.58 969.45 L 1175.47 968.19 C 1175.89 968.28 1176.73 968.45 1177.15 968.54 C 1178.30 967.35 1179.78 966.48 1181.49 966.48 L 1181.47 965.38 C 1181.89 965.40 1182.73 965.44 1183.16 965.46 C 1184.08 963.03 1187.01 962.46 1188.28 960.23 C 1189.17 958.78 1190.16 957.40 1191.38 956.21 C 1191.99 954.28 1193.42 952.69 1193.62 950.63 L 1194.31 950.59 C 1194.15 949.23 1194.50 948.08 1195.37 947.15 C 1195.43 945.92 1195.46 944.71 1195.47 943.51 L 1196.48 943.58 C 1196.28 940.37 1196.36 937.17 1196.40 933.98 C 1196.57 931.05 1195.13 928.33 1195.35 925.41 L 1194.60 925.54 C 1194.18 923.83 1193.70 922.16 1193.32 920.47 L 1192.23 920.26 C 1192.32 919.92 1192.51 919.22 1192.60 918.87 C 1191.46 918.03 1190.69 916.89 1190.29 915.58 C 1187.37 912.22 1184.25 908.97 1180.39 906.70 C 1178.96 906.11 1177.57 905.46 1176.25 904.73 C 1174.31 904.04 1172.32 903.53 1170.28 903.46 L 1170.60 902.52 C 1167.36 902.76 1164.13 902.52 1160.91 902.69 C 1158.75 903.12 1156.62 903.76 1154.42 903.64 Z" />
<path fill="#da031b" opacity="1.00" d=" M 513.43 852.50 C 520.85 852.59 528.28 852.65 535.70 852.47 C 535.51 863.15 535.82 873.84 535.54 884.53 C 548.18 884.38 560.83 884.57 573.47 884.44 C 573.37 891.19 573.33 897.94 573.50 904.69 C 560.85 904.50 548.19 904.86 535.54 904.51 C 535.73 921.87 535.72 939.24 535.54 956.61 L 536.42 956.40 C 536.34 958.74 537.12 960.97 537.65 963.24 C 538.63 964.04 539.36 965.09 539.64 966.36 C 540.98 966.50 541.65 967.26 541.67 968.66 C 542.13 968.53 543.05 968.27 543.51 968.15 L 543.36 969.35 C 547.56 970.20 551.80 970.69 556.10 970.32 C 557.66 969.10 559.71 969.47 561.55 969.42 L 561.46 968.63 C 563.05 968.26 564.63 967.80 566.20 967.30 C 567.53 966.51 568.93 965.83 570.42 965.36 C 570.69 965.03 571.24 964.37 571.52 964.04 C 571.54 964.57 571.58 965.63 571.61 966.16 C 572.51 967.01 572.86 968.12 572.65 969.51 L 573.54 969.53 C 573.54 970.30 573.54 971.83 573.54 972.60 L 574.53 972.51 C 574.54 973.28 574.56 974.81 574.56 975.58 L 575.54 975.49 C 575.54 976.26 575.56 977.81 575.56 978.58 L 576.54 978.47 C 576.55 979.25 576.55 980.79 576.55 981.57 L 577.73 981.50 C 578.05 983.55 576.63 984.72 574.98 985.59 C 574.61 985.55 573.87 985.47 573.50 985.43 L 573.31 986.68 C 572.95 986.64 572.22 986.56 571.86 986.52 C 570.07 988.04 567.76 988.58 565.46 988.65 L 565.57 989.57 C 564.19 989.55 562.82 989.53 561.45 989.50 L 561.54 990.51 C 559.93 990.54 558.33 990.59 556.74 990.67 C 549.10 992.81 541.06 990.86 533.46 989.40 L 533.54 988.65 C 528.10 987.80 523.34 983.95 520.21 979.54 C 518.85 977.74 517.46 975.79 517.33 973.46 L 516.59 973.51 C 516.13 971.61 515.62 969.75 515.12 967.88 C 514.00 965.18 514.40 962.20 514.45 959.37 L 513.53 959.59 C 513.47 941.24 513.41 922.88 513.54 904.53 C 506.44 904.85 499.33 904.44 492.23 904.77 C 492.45 897.97 492.37 891.16 492.27 884.36 C 499.36 884.65 506.46 884.33 513.55 884.55 C 513.35 873.87 513.58 863.18 513.43 852.50 Z" />
<path fill="#da031b" opacity="1.00" d=" M 109.14 883.22 C 111.78 881.63 115.10 882.63 118.03 882.34 C 121.94 882.61 126.13 881.65 129.84 883.19 C 131.93 883.55 134.08 883.94 135.87 885.15 C 137.99 885.87 140.17 886.67 141.82 888.27 C 142.84 888.77 143.74 889.46 144.63 890.18 C 146.58 891.57 148.51 893.09 149.71 895.22 C 151.69 897.62 154.23 899.94 154.01 903.42 C 154.33 902.34 154.96 900.18 155.27 899.10 C 156.04 897.63 157.14 896.39 158.30 895.23 C 160.99 891.93 164.49 888.76 168.53 887.28 L 168.66 886.21 C 169.12 886.31 170.03 886.52 170.49 886.62 L 170.63 885.55 C 172.23 885.05 173.82 884.52 175.49 884.30 L 175.52 883.64 C 182.58 881.91 189.85 882.32 197.06 882.39 C 198.64 882.41 200.27 882.54 201.69 883.31 C 202.37 883.35 203.74 883.43 204.42 883.46 L 204.51 884.54 C 205.24 884.49 206.71 884.39 207.44 884.34 L 207.40 885.35 C 214.70 886.82 220.47 892.54 224.80 898.32 C 225.96 900.25 227.78 902.11 227.57 904.55 C 227.82 904.57 228.33 904.61 228.58 904.63 C 229.67 909.38 231.59 914.02 231.63 918.99 C 231.76 942.25 231.47 965.51 231.77 988.77 C 224.28 988.56 216.78 988.59 209.29 988.75 C 209.62 966.64 209.21 944.52 209.48 922.40 L 208.43 922.67 C 208.43 921.24 208.43 919.83 208.46 918.42 L 207.65 918.49 C 207.19 916.83 206.71 915.18 206.40 913.51 L 205.67 913.54 C 205.22 912.55 204.77 911.57 204.33 910.60 C 202.42 908.09 199.76 906.46 197.18 904.76 C 196.20 904.45 195.22 904.15 194.24 903.85 C 189.95 902.39 185.42 902.53 180.95 902.68 C 179.77 904.03 177.92 903.50 176.37 903.62 L 176.46 904.91 C 176.07 904.78 175.29 904.54 174.90 904.42 C 171.71 906.63 167.95 908.27 165.76 911.67 C 163.90 913.75 163.13 916.48 161.65 918.80 C 161.60 919.47 161.50 920.80 161.45 921.47 L 160.56 921.42 C 160.56 923.47 160.49 925.54 160.41 927.61 L 159.54 927.46 C 159.88 947.90 159.41 968.34 159.77 988.77 C 152.31 988.54 144.85 988.63 137.39 988.72 C 137.50 966.73 137.74 944.72 137.24 922.74 C 136.75 921.50 136.43 920.20 136.11 918.93 C 135.70 917.77 135.41 916.59 135.26 915.39 L 134.66 915.37 C 133.18 910.24 128.84 906.42 124.07 904.34 C 122.11 903.66 119.95 903.69 118.11 902.69 C 115.31 902.59 112.52 902.62 109.73 902.72 C 107.38 903.61 104.92 904.20 102.45 904.68 L 102.30 905.73 C 101.94 905.64 101.23 905.47 100.87 905.38 C 100.12 906.51 98.98 907.24 97.71 907.67 C 96.71 908.64 95.71 909.63 94.68 910.59 C 93.84 911.88 93.03 913.19 92.24 914.52 L 91.29 914.54 C 91.42 914.98 91.69 915.87 91.82 916.31 L 90.72 916.43 C 90.26 918.48 89.55 920.47 89.38 922.59 L 88.56 922.40 C 88.37 944.50 88.35 966.60 88.53 988.70 C 81.10 988.65 73.66 988.53 66.23 988.77 C 66.46 953.97 66.37 919.16 66.27 884.37 C 73.42 884.55 80.58 884.55 87.72 884.37 C 87.61 888.52 87.68 892.68 87.60 896.85 C 89.02 896.53 90.77 896.43 90.64 894.48 L 91.26 894.49 C 92.90 891.23 96.11 889.03 99.22 887.30 C 100.31 886.02 101.87 885.16 103.60 885.47 L 103.48 884.56 C 105.34 884.02 107.23 883.55 109.14 883.22 Z" />
<path fill="#da031b" opacity="1.00" d=" M 294.59 882.59 C 301.63 882.52 308.89 881.58 315.82 883.13 C 317.71 883.63 319.60 884.14 321.51 884.59 L 321.46 885.32 C 325.02 885.80 328.11 888.01 330.81 890.26 C 333.19 891.87 335.55 893.84 336.79 896.50 L 338.49 896.72 C 338.34 892.60 338.45 888.49 338.33 884.38 C 345.77 884.54 353.22 884.54 360.67 884.38 C 360.56 919.17 360.48 953.97 360.71 988.75 C 353.24 988.58 345.76 988.58 338.28 988.75 C 338.49 984.65 338.31 980.54 338.52 976.45 L 336.52 976.50 C 337.01 978.56 334.69 979.35 333.61 980.64 C 331.51 982.44 329.67 985.03 326.82 985.61 C 325.76 986.98 324.18 987.61 322.48 987.65 L 322.44 988.38 C 320.59 988.91 318.73 989.42 316.85 989.82 C 315.41 990.68 313.73 990.70 312.11 990.73 C 302.88 992.75 293.11 990.72 284.38 987.43 C 284.07 987.19 283.45 986.71 283.14 986.47 C 282.78 986.52 282.08 986.62 281.72 986.66 L 281.48 985.41 C 281.12 985.45 280.39 985.53 280.03 985.57 C 271.61 980.52 264.45 973.50 259.48 965.01 C 259.49 964.62 259.51 963.84 259.52 963.45 L 258.20 963.36 C 258.29 962.99 258.46 962.25 258.55 961.87 C 257.11 960.55 256.68 958.64 256.23 956.84 C 255.03 954.69 254.72 952.22 254.19 949.87 C 252.67 945.18 253.94 940.08 252.28 935.38 L 253.43 935.71 C 252.95 930.60 253.64 925.57 254.58 920.58 L 255.38 920.54 C 255.39 918.65 255.76 916.79 256.56 915.08 C 258.97 909.37 261.89 903.72 266.27 899.26 C 267.59 897.21 269.27 895.33 271.50 894.26 L 271.52 893.73 C 273.81 892.30 275.72 890.33 278.21 889.21 C 279.51 888.28 280.88 887.35 282.56 887.28 L 282.64 886.21 C 283.01 886.29 283.75 886.45 284.13 886.53 C 285.81 884.79 288.28 884.50 290.56 884.33 L 290.45 883.47 C 291.82 883.46 293.18 883.46 294.55 883.48 L 294.59 882.59 M 295.76 904.75 C 288.80 907.36 283.53 912.85 279.46 918.86 C 279.52 919.22 279.63 919.94 279.69 920.29 L 278.67 920.49 C 278.27 922.16 277.80 923.82 277.38 925.50 L 276.54 925.40 C 276.56 926.79 276.57 928.19 276.58 929.60 L 275.57 929.34 C 275.64 934.06 275.68 938.78 275.54 943.51 L 276.50 943.56 C 276.51 944.73 276.56 945.91 276.64 947.10 C 277.47 948.06 277.82 949.22 277.70 950.60 L 278.36 950.65 C 278.66 952.66 279.83 954.38 280.67 956.21 C 281.74 957.48 282.87 958.74 283.64 960.24 C 285.79 962.18 287.74 964.68 290.52 965.65 L 290.52 966.43 C 292.09 966.60 293.56 967.27 294.75 968.32 C 296.61 968.90 298.49 969.34 300.42 969.64 L 300.43 970.46 C 305.05 970.33 309.67 970.70 314.28 970.25 C 315.62 969.57 317.10 969.33 318.60 969.30 L 318.51 968.59 C 326.58 966.80 332.38 960.07 336.33 953.18 C 336.79 951.62 337.23 950.05 337.67 948.50 L 338.32 948.58 C 340.22 940.61 339.65 932.39 338.41 924.41 L 337.49 924.47 C 336.94 919.86 333.61 916.32 331.26 912.55 L 330.45 912.54 L 330.47 911.78 C 330.15 911.53 329.50 911.02 329.18 910.76 C 326.98 908.88 324.56 907.34 322.16 905.77 C 320.62 905.20 319.07 904.70 317.47 904.40 L 317.58 903.55 C 315.75 903.51 313.65 904.00 312.16 902.64 C 308.89 902.64 305.61 902.71 302.35 902.54 L 302.50 903.46 C 300.17 903.32 297.93 904.01 295.76 904.75 Z" />
<path fill="#da031b" opacity="1.00" d=" M 414.40 883.50 C 415.67 883.44 416.95 883.39 418.23 883.31 C 420.63 882.08 423.41 882.41 426.01 882.34 C 434.66 882.47 443.54 881.67 451.91 884.21 C 453.25 884.43 454.89 884.21 455.89 885.36 C 456.57 885.38 457.93 885.43 458.61 885.45 L 458.46 886.49 C 459.23 886.46 460.77 886.41 461.54 886.38 L 461.47 887.29 C 462.83 887.21 463.98 887.62 464.93 888.52 C 465.28 888.45 465.98 888.32 466.32 888.25 L 466.49 889.60 C 466.96 889.51 467.91 889.31 468.39 889.21 L 468.45 890.59 C 468.91 890.51 469.84 890.34 470.30 890.26 L 470.46 891.26 C 472.90 890.96 473.19 893.63 472.10 895.19 C 470.46 897.67 469.73 900.77 467.50 902.82 C 467.54 903.23 467.63 904.05 467.68 904.46 L 466.36 904.51 C 466.42 904.87 466.53 905.60 466.59 905.96 C 465.31 907.25 464.87 909.03 463.93 910.53 C 460.79 909.23 458.00 906.92 454.54 906.47 L 454.63 905.59 C 453.85 905.57 452.28 905.54 451.50 905.52 L 451.57 904.55 C 450.77 904.56 449.17 904.56 448.38 904.57 L 448.60 903.55 C 447.17 903.54 445.75 903.54 444.33 903.55 L 444.60 902.56 C 442.58 902.57 440.56 902.54 438.54 902.52 L 438.57 901.48 C 433.86 901.77 429.13 901.70 424.41 901.52 L 424.67 902.57 C 423.25 902.56 421.84 902.54 420.43 902.52 L 420.50 903.76 C 420.10 903.68 419.32 903.52 418.92 903.44 C 413.85 905.83 409.88 910.71 410.47 916.60 L 411.81 916.58 C 411.69 917.06 411.44 918.03 411.32 918.52 L 412.76 918.46 C 412.66 918.92 412.46 919.85 412.36 920.31 C 415.91 920.95 418.74 923.81 422.58 923.63 L 422.41 924.44 C 424.43 924.39 426.46 924.45 428.49 924.51 L 428.43 925.46 C 431.24 925.45 434.27 924.99 436.89 926.30 C 438.46 926.38 440.03 926.43 441.62 926.46 L 441.35 927.43 C 443.48 927.55 446.01 926.80 447.85 928.25 C 450.27 928.53 452.62 929.20 454.87 930.15 C 461.23 932.30 467.20 936.01 471.29 941.41 C 472.35 942.96 473.59 944.54 473.70 946.52 L 474.59 946.54 C 474.57 947.30 474.52 948.81 474.50 949.56 L 475.51 949.59 C 475.72 954.87 475.71 960.15 475.52 965.44 L 474.45 965.43 C 474.51 966.20 474.61 967.72 474.66 968.48 L 473.58 968.40 C 473.73 971.39 471.38 973.64 469.89 976.00 C 467.26 979.09 464.27 982.15 460.46 983.74 L 460.29 984.73 C 459.83 984.65 458.92 984.48 458.46 984.40 L 458.37 985.79 C 457.90 985.69 456.96 985.49 456.49 985.39 L 456.41 986.45 C 454.78 986.94 453.16 987.46 451.46 987.69 L 451.48 988.36 C 449.23 988.66 447.06 989.34 444.87 989.86 C 435.80 991.69 426.37 992.20 417.23 990.65 C 415.96 990.54 414.69 990.51 413.43 990.54 L 413.66 989.56 C 411.88 989.58 410.11 989.60 408.34 989.62 L 408.57 988.50 C 407.15 988.54 405.73 988.58 404.32 988.61 L 404.62 987.65 C 400.60 987.87 397.36 985.17 393.61 984.36 L 393.47 983.41 C 393.03 983.47 392.16 983.57 391.72 983.63 L 391.50 982.66 C 388.92 982.11 387.02 980.18 384.72 979.05 C 383.36 976.49 386.07 974.23 387.26 972.19 C 389.20 968.29 391.94 964.84 393.78 960.89 C 394.44 961.35 395.11 961.81 395.79 962.27 C 396.90 962.76 397.91 963.42 398.82 964.26 C 399.32 964.51 400.32 965.02 400.82 965.28 C 402.20 965.78 403.57 966.37 404.75 967.31 C 409.04 968.29 413.06 970.75 417.60 970.50 L 417.36 971.43 C 424.79 971.49 432.21 971.60 439.64 971.41 L 439.43 970.38 C 440.83 970.40 442.23 970.45 443.64 970.51 L 443.46 969.10 C 443.97 969.23 444.99 969.51 445.49 969.65 L 445.72 968.35 C 446.08 968.40 446.79 968.52 447.15 968.58 C 448.77 966.96 450.75 965.64 451.80 963.56 L 452.53 963.56 C 452.18 962.24 452.44 961.11 453.34 960.18 C 453.37 959.23 453.45 957.34 453.48 956.39 L 452.17 956.54 C 452.31 956.01 452.58 954.95 452.72 954.43 L 451.23 954.51 C 451.32 954.06 451.50 953.14 451.59 952.69 C 450.24 952.35 448.29 952.60 448.34 950.64 C 447.18 950.67 446.13 950.38 445.18 949.78 C 442.89 949.02 440.51 948.61 438.26 947.75 C 436.37 947.57 434.48 947.47 432.59 947.39 L 432.55 946.54 C 430.08 946.66 427.51 946.84 425.22 945.74 C 423.32 945.60 421.42 945.52 419.51 945.48 L 419.62 944.58 C 415.74 945.01 412.24 943.05 408.50 942.45 L 408.60 941.59 C 406.59 941.68 404.82 940.75 403.17 939.75 C 399.45 937.67 395.35 935.42 393.24 931.57 L 392.62 931.57 C 392.07 930.56 391.64 929.51 391.32 928.42 L 390.23 928.33 C 390.33 927.88 390.53 926.96 390.62 926.51 L 389.62 926.46 C 386.66 917.94 386.97 908.34 391.21 900.31 C 393.13 896.43 396.30 893.45 399.41 890.55 L 400.34 890.34 C 404.43 887.26 409.37 884.61 414.56 884.38 L 414.40 883.50 Z" />
<path fill="#da031b" opacity="1.00" d=" M 633.14 883.25 C 634.92 882.17 637.06 882.45 639.05 882.36 C 644.51 882.35 649.99 882.21 655.45 882.64 L 655.49 883.42 C 656.97 883.32 658.51 883.38 659.84 884.17 C 660.90 884.36 661.92 884.70 662.90 885.19 C 671.26 887.84 677.75 893.99 683.44 900.42 L 683.63 901.38 C 684.97 902.88 686.42 904.43 686.73 906.53 L 687.72 906.67 C 687.64 907.14 687.49 908.08 687.42 908.55 L 688.80 908.63 C 688.72 909.02 688.55 909.80 688.46 910.19 C 690.39 912.09 690.53 915.03 691.57 917.44 C 692.56 919.71 692.67 922.19 692.63 924.65 L 693.57 924.35 C 693.48 926.59 693.67 928.83 694.15 931.04 C 694.71 935.54 694.28 940.11 694.28 944.65 C 668.29 944.59 642.31 944.77 616.32 944.55 C 616.00 947.67 617.47 950.53 617.64 953.61 L 618.82 953.41 C 618.69 953.93 618.44 954.95 618.31 955.46 L 619.67 955.56 C 619.61 955.97 619.50 956.81 619.44 957.23 C 621.79 959.03 622.71 962.08 625.10 963.85 C 627.59 965.81 630.18 967.98 633.37 968.65 L 633.57 969.70 C 634.06 969.53 635.04 969.20 635.53 969.04 L 635.38 970.36 C 638.32 970.07 641.03 971.50 643.95 971.43 C 647.35 971.43 650.76 971.42 654.17 971.34 C 655.59 970.15 657.47 970.42 659.20 970.36 C 660.27 968.89 662.14 969.56 663.66 969.46 L 663.42 968.04 C 663.94 968.20 664.98 968.50 665.50 968.65 L 665.63 967.62 C 669.52 966.58 672.99 964.34 676.18 961.95 C 676.91 961.40 678.51 960.77 679.04 961.89 C 681.56 966.02 684.27 970.04 687.02 974.02 C 687.67 975.06 688.99 976.08 688.53 977.50 C 687.19 978.90 685.39 979.72 683.77 980.74 C 682.60 981.78 681.17 982.49 680.01 983.55 C 679.62 983.53 678.83 983.50 678.43 983.48 L 678.34 984.77 C 677.89 984.67 676.98 984.47 676.53 984.37 L 676.29 985.71 C 675.94 985.66 675.22 985.55 674.86 985.49 C 672.34 987.44 669.04 988.17 665.96 988.80 C 664.34 989.99 662.21 989.51 660.36 989.58 L 660.61 990.53 C 659.02 990.55 657.43 990.62 655.85 990.75 C 653.04 991.79 649.97 991.36 647.05 991.50 C 644.04 991.39 640.89 991.82 638.05 990.63 C 636.50 990.55 634.98 990.51 633.45 990.50 L 633.59 989.62 C 631.14 989.70 628.79 989.07 626.45 988.44 L 626.60 987.65 C 625.15 987.85 623.99 987.45 623.10 986.46 C 622.73 986.54 622.00 986.70 621.63 986.78 L 621.56 985.76 C 618.72 985.22 616.50 983.30 614.17 981.76 C 611.62 980.05 609.39 977.88 607.25 975.71 C 605.15 973.20 602.42 970.98 601.34 967.79 C 599.43 965.43 597.73 962.56 597.41 959.50 L 596.48 959.50 C 596.47 958.73 596.45 957.19 596.44 956.42 L 595.60 956.50 C 595.19 952.61 593.45 948.96 593.41 945.01 C 593.36 935.33 592.50 925.33 596.14 916.13 C 596.69 914.64 597.20 913.15 597.56 911.62 L 598.40 911.54 C 598.28 909.08 600.18 907.20 601.26 905.16 C 602.93 901.99 605.43 899.44 607.74 896.75 C 611.40 893.64 614.77 889.70 619.54 888.32 L 619.67 887.19 C 620.11 887.31 621.00 887.55 621.44 887.68 L 621.66 886.59 C 623.28 886.06 624.90 885.56 626.59 885.27 L 626.55 884.51 C 627.19 884.46 628.48 884.37 629.12 884.32 C 630.21 883.30 631.75 883.42 633.14 883.25 M 618.70 917.78 C 618.18 919.36 617.73 920.97 617.41 922.61 L 616.61 922.44 C 616.54 924.18 616.45 925.93 616.35 927.69 C 634.71 927.60 653.08 927.68 671.45 927.65 C 671.46 926.84 671.47 925.22 671.48 924.41 L 670.54 924.68 C 670.35 922.55 669.75 920.49 669.28 918.43 L 668.64 918.33 C 667.42 913.08 663.37 909.11 659.42 905.72 C 657.52 904.83 655.72 903.60 653.61 903.32 L 653.61 902.67 C 648.57 901.70 643.48 901.50 638.36 901.56 L 638.53 902.47 C 629.55 902.87 622.45 910.11 618.70 917.78 Z" />
<path fill="#da031b" opacity="1.00" d=" M 759.18 883.11 C 763.60 881.71 768.34 882.58 772.91 882.33 C 776.85 882.10 780.48 883.89 784.35 884.27 C 783.81 885.61 783.56 887.05 783.34 888.49 L 782.55 888.43 C 782.55 889.20 782.55 890.74 782.55 891.52 L 781.56 891.42 C 781.56 892.21 781.55 893.77 781.55 894.55 L 780.51 894.43 C 780.54 895.19 780.59 896.71 780.62 897.47 L 779.62 897.42 C 779.69 900.62 778.09 903.46 777.13 906.43 C 776.95 905.94 776.59 904.94 776.41 904.44 C 775.67 904.51 774.18 904.65 773.44 904.71 L 773.59 903.49 C 771.81 903.55 770.04 903.59 768.27 903.61 L 768.61 902.52 C 765.89 902.69 763.17 902.69 760.46 902.52 L 760.44 903.46 C 758.76 903.49 757.08 903.53 755.41 903.56 L 755.42 904.34 C 750.52 905.31 746.33 908.98 744.32 913.52 L 743.61 913.43 C 743.29 915.10 742.85 916.76 742.47 918.43 L 741.52 918.44 C 741.95 921.99 740.51 925.38 740.63 928.92 C 740.75 948.87 740.48 968.82 740.77 988.77 C 733.31 988.54 725.84 988.62 718.37 988.73 C 718.59 953.96 718.51 919.18 718.41 884.41 C 725.81 884.52 733.22 884.54 740.62 884.40 C 740.49 888.49 740.63 892.59 740.42 896.68 L 742.68 896.41 C 742.57 896.07 742.35 895.39 742.24 895.05 C 745.78 891.23 749.27 886.59 754.56 885.24 L 754.61 884.50 C 756.17 884.18 757.69 883.69 759.18 883.11 Z" />
<path fill="#da031b" opacity="1.00" d=" M 835.10 883.35 C 836.14 882.43 837.57 882.50 838.89 882.43 C 844.25 882.27 849.61 882.38 854.98 882.34 C 859.59 882.29 863.97 883.95 868.49 884.64 L 868.50 885.39 C 870.42 885.55 872.44 886.02 873.84 887.47 C 874.19 887.44 874.91 887.38 875.26 887.35 L 875.52 888.30 C 876.10 888.51 877.27 888.91 877.86 889.12 C 878.80 889.84 879.79 890.54 880.80 891.23 C 882.15 892.14 883.51 893.06 884.92 893.92 C 882.39 898.66 879.66 903.35 876.67 907.81 C 875.98 909.32 875.00 913.00 872.77 911.12 C 869.88 908.64 866.12 907.64 863.12 905.45 C 862.72 905.57 861.91 905.82 861.51 905.94 L 861.64 904.70 C 860.09 904.51 858.38 904.73 857.11 903.69 C 855.58 903.54 854.05 903.47 852.53 903.46 L 852.52 902.51 C 848.79 902.73 845.07 902.70 841.35 902.53 L 841.65 903.59 C 840.22 903.57 838.81 903.55 837.40 903.54 L 837.49 904.60 C 836.74 904.57 835.25 904.52 834.50 904.49 C 834.44 904.83 834.31 905.51 834.25 905.86 L 832.59 905.27 L 832.43 906.63 C 832.02 906.59 831.21 906.50 830.80 906.45 C 827.81 909.27 824.08 911.27 821.71 914.76 C 819.42 918.38 816.85 922.17 816.53 926.57 L 815.55 926.39 C 815.29 933.13 815.14 939.85 815.59 946.59 L 816.35 946.47 C 816.69 948.53 817.40 950.51 817.70 952.60 L 818.40 952.37 C 818.76 954.15 819.91 955.60 820.67 957.23 C 824.80 962.29 829.79 967.32 836.44 968.66 L 836.40 969.34 C 842.70 970.81 849.14 970.46 855.58 970.44 L 855.34 969.55 C 858.61 969.71 861.36 967.62 864.56 967.36 L 864.58 966.30 C 864.98 966.34 865.78 966.43 866.18 966.47 C 868.45 964.89 870.82 963.35 873.40 962.33 C 873.61 961.90 874.01 961.02 874.22 960.58 C 876.91 966.34 880.61 971.63 883.80 977.15 C 886.45 980.03 881.58 981.34 879.80 982.77 C 876.74 984.87 873.43 986.79 869.84 987.74 C 868.96 988.38 867.97 988.73 866.87 988.81 C 865.77 989.70 864.31 989.59 863.01 989.74 C 855.34 991.70 847.03 992.27 839.27 990.71 C 837.63 990.59 836.00 990.53 834.38 990.51 L 834.59 989.55 C 832.69 989.56 830.56 989.99 829.08 988.49 C 828.66 988.59 827.82 988.79 827.39 988.90 L 827.61 987.60 C 824.61 988.18 822.41 985.81 819.64 985.39 L 819.47 984.67 C 817.53 984.12 815.89 982.95 814.29 981.81 C 812.47 980.62 810.77 979.27 809.26 977.73 C 807.60 976.77 806.21 975.45 805.31 973.77 C 801.39 969.39 797.56 964.27 796.37 958.44 L 795.62 958.54 C 795.12 956.65 794.65 954.76 794.21 952.87 C 792.99 951.30 793.45 949.18 793.47 947.38 L 792.54 947.50 C 792.30 938.80 791.82 930.02 793.54 921.44 L 794.47 921.59 C 794.29 920.02 794.38 918.51 795.12 917.14 C 795.66 915.65 796.19 914.17 796.56 912.65 L 797.42 912.54 C 797.12 910.98 798.47 909.89 798.61 908.44 L 799.64 908.49 C 799.58 908.12 799.46 907.39 799.40 907.02 C 804.55 900.08 810.33 892.70 818.53 889.33 L 818.71 888.26 C 819.16 888.34 820.08 888.51 820.54 888.59 L 820.64 887.24 C 821.02 887.32 821.77 887.47 822.15 887.54 C 824.80 885.54 828.27 884.43 831.61 884.38 L 831.54 883.49 C 832.72 883.47 833.90 883.42 835.10 883.35 Z" />
<path fill="#da031b" opacity="1.00" d=" M 935.38 883.60 C 944.59 881.78 954.25 881.70 963.46 883.63 L 963.50 884.31 C 964.69 884.37 965.82 884.66 966.91 885.18 C 968.34 885.60 969.65 886.32 970.81 887.31 C 973.08 887.64 974.44 889.80 976.47 890.71 L 976.52 891.27 C 978.36 892.13 979.88 893.55 980.74 895.42 L 981.54 895.50 L 981.54 896.68 C 982.02 896.66 982.98 896.63 983.46 896.62 C 983.28 892.53 983.40 888.44 983.28 884.37 C 990.66 884.59 998.05 884.46 1005.45 884.44 C 1005.36 919.19 1005.30 953.94 1005.47 988.69 C 998.06 988.67 990.64 988.52 983.23 988.77 C 983.47 984.07 983.29 979.35 983.37 974.66 C 980.42 979.70 975.68 983.60 970.62 986.43 L 969.50 986.59 L 969.37 987.44 C 967.74 987.93 966.12 988.48 964.44 988.68 L 964.58 989.48 C 963.91 989.54 962.56 989.66 961.88 989.71 C 960.43 990.77 958.54 990.53 956.88 990.78 C 952.14 991.92 946.79 991.92 942.08 990.65 C 940.54 990.55 939.01 990.50 937.50 990.47 L 937.51 989.60 C 936.02 989.45 934.36 989.82 933.14 988.80 C 931.49 987.98 928.97 988.42 928.22 986.40 C 927.79 986.51 926.94 986.73 926.51 986.84 L 926.65 985.65 C 924.92 985.78 923.63 984.71 922.33 983.83 C 921.20 983.24 920.18 982.52 919.18 981.77 C 915.10 978.64 911.20 975.04 908.27 970.81 C 902.65 963.67 899.33 954.78 898.18 945.81 C 897.23 940.15 896.76 933.98 898.29 928.44 C 898.44 926.78 898.40 925.11 898.40 923.47 L 899.43 923.59 C 899.28 919.95 900.37 916.10 902.49 913.18 C 902.44 912.75 902.34 911.89 902.28 911.46 L 903.45 911.61 C 903.25 909.91 904.00 908.26 905.33 907.23 C 905.93 905.04 907.66 903.45 908.76 901.52 L 909.25 901.43 C 912.21 896.72 916.78 893.24 921.32 890.12 C 923.91 888.58 926.42 886.65 929.51 886.28 L 929.51 885.59 C 931.47 884.94 933.48 884.40 935.57 884.33 L 935.38 883.60 M 942.41 903.64 L 942.51 904.40 C 940.90 904.79 939.30 905.21 937.72 905.66 C 935.54 907.61 932.77 908.83 930.53 910.76 L 930.51 911.52 L 929.76 911.54 C 929.50 911.86 928.99 912.51 928.73 912.83 C 925.99 916.31 923.16 920.07 922.41 924.53 L 921.59 924.40 C 921.53 925.76 921.48 927.14 921.44 928.53 L 920.57 928.50 C 920.34 934.19 920.51 939.89 920.54 945.59 L 921.60 945.45 C 921.61 946.11 921.61 947.43 921.61 948.09 C 922.44 949.08 922.81 950.27 922.74 951.66 L 923.81 951.58 C 923.69 952.05 923.45 952.97 923.33 953.43 L 924.73 953.73 C 924.65 954.09 924.48 954.80 924.40 955.16 C 928.80 960.88 933.99 967.08 941.48 968.59 L 941.40 969.30 C 942.86 969.32 944.36 969.57 945.71 970.24 C 950.32 970.69 954.95 970.35 959.58 970.45 L 959.58 969.55 C 960.26 969.49 961.64 969.37 962.32 969.30 C 963.25 968.85 964.22 968.50 965.23 968.25 C 967.15 967.11 969.10 966.02 971.15 965.12 C 971.59 964.10 972.37 963.49 973.49 963.30 L 973.43 962.44 L 974.49 962.50 L 974.49 961.48 L 975.21 961.46 C 975.48 961.15 976.02 960.53 976.29 960.22 C 977.11 958.98 977.94 957.75 978.75 956.52 L 979.46 956.48 C 979.48 954.28 981.63 952.83 981.56 950.59 L 982.42 950.64 C 982.44 949.85 982.48 948.27 982.50 947.48 L 983.49 947.51 C 983.45 946.14 983.43 944.78 983.44 943.43 L 984.45 943.64 C 984.26 939.72 984.44 935.79 984.28 931.87 C 983.35 929.84 983.36 927.55 983.46 925.39 L 982.52 925.50 C 982.13 923.82 981.70 922.15 981.39 920.47 L 980.32 920.44 C 980.38 920.03 980.49 919.19 980.54 918.78 C 978.65 917.43 978.18 914.98 976.44 913.50 C 973.12 909.65 968.90 906.69 964.22 904.74 C 962.05 904.00 959.83 903.30 957.52 903.44 L 957.60 902.51 C 952.46 902.36 947.46 903.02 942.41 903.64 Z" />
<path fill="#da031b" opacity="1.00" d=" M 1077.47 882.56 C 1084.84 882.14 1092.26 882.03 1099.50 883.58 L 1099.47 884.59 C 1100.07 884.48 1101.28 884.27 1101.88 884.16 C 1100.72 888.43 1099.25 892.63 1097.86 896.84 C 1097.59 897.87 1097.26 898.88 1096.88 899.89 C 1096.71 900.97 1096.31 901.95 1095.68 902.84 C 1095.61 903.56 1095.46 904.99 1095.38 905.71 C 1093.71 904.89 1091.68 904.86 1090.23 903.66 C 1084.27 903.11 1078.31 903.16 1072.36 903.65 L 1072.49 904.92 C 1072.01 904.77 1071.06 904.47 1070.59 904.32 L 1070.26 905.70 C 1069.83 905.61 1068.97 905.43 1068.53 905.33 L 1068.46 906.18 C 1064.91 908.09 1062.92 911.62 1060.70 914.75 C 1060.74 915.96 1060.38 917.01 1059.61 917.88 C 1059.60 918.55 1059.58 919.90 1059.57 920.57 L 1058.58 920.38 C 1058.18 943.14 1058.34 965.91 1058.45 988.68 C 1051.04 988.68 1043.63 988.51 1036.23 988.78 C 1036.45 953.98 1036.38 919.17 1036.27 884.37 C 1043.42 884.55 1050.57 884.55 1057.72 884.37 C 1057.59 888.45 1057.71 892.54 1057.54 896.63 C 1057.97 896.60 1058.83 896.55 1059.25 896.53 C 1060.23 894.24 1062.22 892.66 1063.74 890.76 C 1066.79 887.99 1070.03 885.07 1074.20 884.20 C 1075.09 883.40 1076.19 883.12 1077.51 883.38 L 1077.47 882.56 Z" />
<path fill="#da031b" opacity="1.00" d=" M 1252.50 974.45 C 1256.49 974.03 1261.17 974.53 1263.75 978.03 C 1266.50 980.78 1265.48 984.90 1265.59 988.39 L 1264.58 988.44 C 1264.43 991.27 1261.20 993.59 1258.46 993.65 L 1258.46 994.51 C 1255.80 994.64 1253.15 994.44 1250.67 993.47 L 1250.49 992.78 C 1248.18 992.13 1246.81 990.03 1246.11 987.89 C 1244.94 986.00 1245.57 983.62 1245.42 981.54 L 1246.37 981.60 C 1246.32 978.37 1249.38 975.40 1252.57 975.32 L 1252.50 974.45 M 1253.52 976.99 C 1253.09 976.82 1252.24 976.50 1251.82 976.34 C 1250.35 978.08 1248.06 979.39 1247.66 981.82 C 1247.01 984.40 1247.52 987.10 1248.55 989.53 C 1249.48 990.29 1250.44 991.03 1251.49 991.70 L 1251.43 992.46 C 1254.09 992.61 1256.77 992.65 1259.44 992.44 C 1261.07 990.66 1263.62 989.21 1263.62 986.50 L 1264.41 986.62 C 1264.41 985.57 1264.42 983.46 1264.43 982.41 L 1263.47 982.49 C 1263.47 981.79 1263.47 980.39 1263.47 979.69 C 1261.17 978.97 1260.13 976.18 1257.48 976.36 L 1257.57 975.61 C 1256.51 975.58 1254.39 975.54 1253.33 975.51 L 1253.52 976.99 Z" />
<path fill="#da031b" opacity="1.00" d=" M 1252.33 979.62 C 1254.16 979.59 1256.04 979.59 1257.85 980.03 C 1260.52 980.27 1260.59 985.84 1257.28 984.74 C 1257.36 985.37 1257.52 986.62 1257.60 987.25 C 1258.47 987.70 1259.35 988.18 1260.22 988.69 C 1256.75 989.80 1256.63 985.26 1253.59 984.98 C 1253.60 986.09 1253.62 988.33 1253.62 989.45 C 1253.33 989.29 1252.73 988.96 1252.43 988.80 C 1252.20 985.74 1252.39 982.67 1252.33 979.62 M 1253.43 980.24 C 1253.46 981.33 1253.54 983.52 1253.58 984.62 C 1255.44 984.24 1259.08 984.58 1258.70 981.57 C 1256.96 981.04 1255.16 980.61 1253.43 980.24 Z" />
</g>
<g id="#f79e1bff">
<path fill="#f79e1b" opacity="1.00" d=" M 866.46 0.00 L 903.27 0.00 C 941.62 2.05 979.76 9.17 1015.98 22.03 C 1094.77 49.56 1164.08 103.02 1211.12 171.92 C 1232.43 203.03 1249.28 237.20 1260.89 273.08 C 1272.58 308.98 1278.84 346.58 1280.00 384.30 L 1280.00 405.69 C 1278.85 443.95 1272.43 482.08 1260.44 518.44 C 1248.27 555.64 1230.43 590.95 1207.86 622.92 C 1167.98 679.47 1113.06 725.34 1050.17 754.26 C 971.16 790.97 879.84 800.02 795.03 780.31 C 738.94 767.24 685.51 741.97 640.48 706.00 C 651.11 696.80 662.06 687.92 672.00 677.93 C 717.89 633.20 752.73 577.19 772.27 516.14 C 795.83 443.07 797.37 363.10 776.80 289.14 C 755.09 210.36 708.00 138.88 644.33 87.67 C 642.94 86.56 641.76 85.22 640.63 83.86 C 671.50 59.55 706.07 39.97 742.74 25.88 C 782.22 10.61 824.20 2.10 866.46 0.00 Z" />
<path fill="#f79e1b" opacity="1.00" d=" M 1234.72 624.73 C 1239.06 624.74 1243.41 624.74 1247.77 624.74 C 1247.77 625.38 1247.77 626.68 1247.78 627.32 C 1246.03 627.32 1244.34 627.33 1242.63 627.34 C 1242.65 631.57 1242.63 635.80 1242.65 640.03 C 1241.95 640.05 1240.54 640.07 1239.84 640.08 C 1239.84 635.82 1239.84 631.57 1239.84 627.32 C 1238.11 627.32 1236.40 627.32 1234.70 627.33 C 1234.71 626.68 1234.72 625.38 1234.72 624.73 Z" />
<path fill="#f79e1b" opacity="1.00" d=" M 1250.78 624.71 C 1252.13 624.73 1253.50 624.76 1254.89 624.78 C 1256.32 628.29 1257.79 631.80 1259.52 635.19 C 1260.94 631.67 1262.51 628.22 1264.01 624.75 C 1265.34 624.73 1266.67 624.73 1268.03 624.73 C 1268.03 629.84 1268.02 634.95 1268.03 640.06 C 1267.33 640.06 1265.93 640.07 1265.23 640.07 C 1265.21 636.31 1265.25 632.56 1265.19 628.80 C 1263.60 631.93 1262.27 635.17 1260.95 638.42 C 1260.20 638.43 1258.69 638.46 1257.94 638.47 C 1256.53 635.20 1255.20 631.90 1253.62 628.72 C 1253.58 632.50 1253.61 636.28 1253.61 640.07 C 1252.90 640.06 1251.49 640.06 1250.78 640.06 C 1250.77 634.94 1250.78 629.82 1250.78 624.71 Z" />
</g>
<g id="#ff5f00ff">
<path fill="#ff5f00" opacity="1.00" d=" M 640.12 84.30 L 640.63 83.86 C 641.76 85.22 642.94 86.56 644.33 87.67 C 708.00 138.88 755.09 210.36 776.80 289.14 C 797.37 363.10 795.83 443.07 772.27 516.14 C 752.73 577.19 717.89 633.20 672.00 677.93 C 662.06 687.92 651.11 696.80 640.48 706.00 L 640.21 706.23 C 636.03 701.89 630.99 698.53 626.56 694.47 C 585.38 658.99 551.62 614.93 528.12 565.91 C 496.43 500.21 483.85 425.59 491.61 353.10 C 499.16 279.95 527.95 209.21 573.41 151.41 C 592.84 126.45 615.53 104.15 640.12 84.30 Z" />
</g>
</svg>
