<svg width="21px" height="21px" viewBox="0 0 210 210" version="1.1" xmlns="http://www.w3.org/2000/svg">
<g id="#ffffffff">
<path fill="#ffffff" opacity="1.00" d=" M 104.99 83.78 C 130.92 57.86 156.85 31.93 182.77 6.00 C 189.84 13.07 196.92 20.14 203.98 27.23 C 178.05 53.15 152.13 79.07 126.21 105.00 C 152.13 130.93 178.06 156.85 203.98 182.77 C 196.92 189.85 189.84 196.91 182.78 203.99 C 156.85 178.07 130.93 152.14 104.99 126.21 C 79.06 152.13 53.14 178.07 27.21 203.99 C 20.14 196.92 13.07 189.85 6.00 182.78 C 31.92 156.85 57.86 130.93 83.78 105.00 C 57.86 79.06 31.92 53.15 6.00 27.22 C 13.07 20.15 20.14 13.07 27.21 6.01 C 53.14 31.93 79.06 57.86 104.99 83.78 Z" />
</g>
</svg>