<?xml version="1.0" encoding="UTF-8" ?>
<!DOCTYPE svg PUBLIC "-//W3C//DTD SVG 1.1//EN" "http://www.w3.org/Graphics/SVG/1.1/DTD/svg11.dtd">
<svg width="850px" height="850px" viewBox="0 0 850 850" class="steps--speedometer" version="1.1" xmlns="http://www.w3.org/2000/svg">
<g id="#55afedff">
<path data="14" fill="#55afed" opacity="1.00" d=" M 421.46 87.72 C 421.54 77.39 421.47 67.05 421.50 56.71 C 423.47 56.72 425.44 56.72 427.42 56.72 C 427.45 67.04 427.38 77.36 427.46 87.68 C 425.45 87.69 423.45 87.71 421.46 87.72 Z" />
<path data="13" fill="#55afed" opacity="1.00" d=" M 356.63 62.80 C 360.04 62.64 363.33 61.63 366.70 61.11 C 367.28 63.07 367.66 65.07 368.15 67.05 C 368.50 70.78 369.28 74.44 369.89 78.13 C 371.09 84.94 372.21 91.77 373.65 98.54 C 370.05 99.71 366.22 99.86 362.60 101.00 C 362.13 100.89 361.19 100.66 360.73 100.55 C 360.08 97.71 359.58 94.85 359.25 91.96 C 357.54 82.58 355.94 73.18 354.17 63.81 C 354.78 63.56 356.01 63.05 356.63 62.80 Z" />
<path data="15" fill="#55afed" opacity="1.00" d=" M 482.44 61.08 C 486.44 61.65 490.38 62.61 494.42 62.92 C 494.50 64.62 494.55 66.35 494.04 68.00 C 493.33 71.68 492.69 75.38 492.23 79.09 C 490.51 86.19 489.83 93.48 488.33 100.62 C 486.49 100.71 484.67 100.30 482.86 100.08 C 480.27 99.61 477.68 99.18 475.16 98.45 C 475.49 97.62 475.83 96.79 476.19 95.97 C 477.16 87.53 479.02 79.20 480.39 70.82 C 480.82 67.52 481.47 64.26 482.44 61.08 Z" />
<path data="12" fill="#55afed" opacity="1.00" d=" M 296.11 79.80 C 297.86 79.30 299.60 78.75 301.35 78.23 C 304.66 87.92 308.47 97.42 311.70 107.14 C 309.93 107.69 308.18 108.28 306.42 108.85 C 303.09 99.13 299.36 89.54 296.11 79.80 Z" />
<path data="16" fill="#55afed" opacity="1.00" d=" M 548.03 78.06 C 549.69 78.64 551.36 79.24 553.02 79.84 C 549.31 89.44 546.27 99.30 542.23 108.75 C 540.65 107.98 539.09 107.20 537.53 106.41 C 541.45 97.11 544.33 87.43 548.03 78.06 Z" />
<path data="11" fill="#55afed" opacity="1.00" d=" M 235.08 109.50 C 238.79 107.50 242.49 105.44 246.03 103.14 C 252.02 114.38 258.61 125.31 264.92 136.37 C 261.16 138.43 257.34 140.39 253.82 142.85 C 247.92 131.55 240.92 120.83 235.08 109.50 Z" />
<path data="17" fill="#55afed" opacity="1.00" d=" M 602.95 103.00 C 606.93 104.77 610.38 107.60 614.54 109.00 C 608.39 119.09 602.61 129.51 596.74 139.81 C 596.23 140.61 595.37 142.58 594.16 141.55 C 590.83 139.76 587.63 137.73 584.30 135.96 C 590.40 124.91 597.15 114.21 602.95 103.00 Z" />
<path data="10" fill="#55afed" opacity="1.00" d=" M 186.80 144.13 C 187.97 143.33 189.15 142.55 190.35 141.79 C 196.78 149.60 203.44 157.23 209.75 165.14 C 208.43 166.69 206.56 167.66 204.96 168.90 C 204.79 168.44 204.46 167.51 204.29 167.05 C 197.78 160.29 192.49 152.46 185.99 145.69 C 186.19 145.30 186.60 144.52 186.80 144.13 Z" />
<path data="18" fill="#55afed" opacity="1.00" d=" M 649.75 152.44 C 652.91 148.77 655.97 145.01 658.96 141.20 C 660.45 142.51 662.01 143.75 663.59 144.96 C 656.23 152.39 650.36 161.15 643.12 168.69 C 641.90 167.41 640.68 166.15 639.46 164.91 C 642.73 160.62 646.46 156.71 649.75 152.44 Z" />
<path data="9" fill="#55afed" opacity="1.00" d=" M 138.82 194.73 C 140.59 190.72 144.04 187.80 146.70 184.38 C 156.17 192.85 166.29 200.57 175.67 209.14 C 172.74 212.07 170.08 215.23 167.70 218.62 C 157.85 210.95 148.71 202.34 138.82 194.73 Z" />
<path data="19" fill="#55afed" opacity="1.00" d=" M 702.27 184.06 C 705.83 186.34 708.03 190.64 710.93 193.80 C 703.84 199.14 697.34 205.24 690.39 210.76 C 687.59 213.23 684.59 215.45 681.96 218.10 C 679.40 214.66 676.07 211.79 673.96 208.06 C 683.35 200.01 692.97 192.21 702.27 184.06 Z" />
<path data="20" fill="#55afed" opacity="1.00" d=" M 715.06 254.67 C 724.10 249.56 732.97 244.13 742.07 239.13 C 743.41 240.54 744.10 242.40 744.94 244.12 C 735.77 248.93 726.93 254.35 718.02 259.63 C 717.09 257.94 716.14 256.26 715.06 254.67 Z" />
<path data="8" fill="#55afed" opacity="1.00" d=" M 104.41 244.82 C 105.31 242.84 106.42 240.96 107.75 239.23 C 116.23 244.87 125.44 249.31 134.00 254.84 C 132.75 256.37 132.14 259.16 130.05 259.54 C 121.56 254.53 113.20 249.25 104.41 244.82 Z" />
<path data="21" fill="#55afed" opacity="1.00" d=" M 733.01 306.89 C 745.09 302.83 756.89 297.91 769.02 294.03 C 770.01 298.17 771.91 302.03 772.90 306.17 C 767.31 308.19 761.75 310.24 756.15 312.21 C 751.01 314.06 746.02 316.33 740.75 317.79 C 739.76 318.32 738.78 318.87 737.81 319.41 C 736.68 317.33 735.82 315.11 735.22 312.82 C 734.52 310.83 733.76 308.86 733.01 306.89 Z" />
<path data="7" fill="#55afed" opacity="1.00" d=" M 80.87 294.52 C 86.78 296.90 92.81 298.95 98.76 301.22 C 103.27 302.79 107.80 304.36 112.22 306.19 C 113.72 306.66 115.21 307.14 116.71 307.62 C 115.00 311.53 113.84 315.65 112.11 319.54 C 104.68 317.64 97.53 314.36 90.26 311.81 C 85.80 310.19 81.25 308.78 76.88 306.96 C 77.05 302.61 79.82 298.72 80.87 294.52 Z" />
<path data="22" fill="#55afed" opacity="1.00" d=" M 772.00 362.09 C 777.07 361.23 782.12 360.23 787.18 359.25 C 787.34 361.22 787.61 363.19 787.91 365.16 C 784.27 365.68 780.68 366.44 777.04 366.93 C 775.36 367.33 773.65 367.63 771.99 368.06 C 768.27 368.48 764.60 369.18 760.96 369.96 C 759.53 370.22 758.11 370.46 756.69 370.69 C 756.62 368.61 756.56 366.51 755.62 364.61 C 757.41 364.49 759.25 364.44 761.02 363.98 C 763.04 363.66 765.07 363.34 767.08 362.93 C 768.71 362.60 770.34 362.34 772.00 362.09 Z" />
<path data="6" fill="#55afed" opacity="1.00" d=" M 61.28 365.55 C 61.97 363.58 62.38 361.54 62.76 359.50 C 67.50 360.35 72.22 361.27 76.96 362.14 C 82.46 362.85 87.84 364.32 93.38 364.70 C 92.46 366.82 92.31 369.11 92.26 371.40 C 81.97 369.26 71.51 367.96 61.28 365.55 Z" />
<path data="23" fill="#55afed" opacity="1.00" d=" M 755.17 420.31 C 767.90 420.36 780.63 420.25 793.35 420.37 C 793.30 424.75 793.30 429.14 793.36 433.53 C 780.62 433.62 767.89 433.53 755.16 433.58 C 755.20 429.15 755.19 424.73 755.17 420.31 Z" />
<path data="5" fill="#55afed" opacity="1.00" d=" M 56.52 421.09 C 69.17 421.01 81.83 421.43 94.47 420.84 C 94.53 425.35 94.50 429.86 94.50 434.37 C 81.84 434.36 69.18 434.34 56.51 434.38 C 56.50 429.95 56.50 425.52 56.52 421.09 Z" />
<path data="4" fill="#55afed" opacity="1.00" d=" M 68.04 487.03 C 76.02 485.21 84.16 484.13 92.19 482.48 C 92.48 484.72 92.94 486.93 93.38 489.14 C 89.60 489.76 85.85 490.54 82.04 490.96 C 80.38 491.37 78.69 491.67 77.03 492.10 C 73.31 492.59 69.63 493.30 65.94 493.95 C 64.79 494.20 63.65 494.47 62.50 494.76 C 62.39 492.43 62.04 490.12 61.43 487.88 C 63.64 487.62 65.84 487.32 68.04 487.03 Z" />
<path data="24" fill="#55afed" opacity="1.00" d=" M 755.72 487.35 C 756.41 485.78 756.62 484.08 756.75 482.40 C 757.58 482.61 759.24 483.03 760.08 483.24 C 767.05 484.31 774.02 485.55 780.93 487.03 C 783.18 487.33 785.44 487.64 787.72 487.77 C 788.36 489.80 787.54 491.81 787.16 493.80 C 785.37 493.50 783.58 493.21 781.81 492.93 C 778.54 492.13 775.24 491.56 771.93 491.00 C 769.89 490.68 767.85 490.35 765.83 489.99 C 764.21 489.63 762.57 489.36 760.95 489.09 C 759.56 488.84 758.18 488.63 756.80 488.46 C 756.43 488.08 756.07 487.71 755.72 487.35 Z" />
<path data="25" fill="#55afed" opacity="1.00" d=" M 737.67 534.19 C 749.67 538.70 761.87 542.72 773.72 547.59 C 771.47 551.37 770.90 555.91 768.41 559.56 C 756.80 554.65 744.76 550.86 733.02 546.28 C 733.67 544.83 734.34 543.40 734.99 541.96 C 735.69 539.30 736.62 536.72 737.67 534.19 Z" />
<path data="3" fill="#55afed" opacity="1.00" d=" M 77.39 547.83 C 88.99 543.29 100.84 539.37 112.45 534.83 C 113.93 538.98 115.45 543.11 116.93 547.27 C 104.81 551.25 93.07 556.41 80.84 560.01 C 80.01 555.92 76.90 552.01 77.39 547.83 Z" />
<path data="2" fill="#55afed" opacity="1.00" d=" M 128.99 594.94 C 129.87 594.35 130.96 594.46 131.96 594.37 C 132.67 595.98 133.41 597.58 134.14 599.19 C 125.72 604.89 116.52 609.35 107.93 614.80 C 106.03 613.46 105.45 611.07 104.46 609.11 C 112.70 604.50 120.82 599.67 128.99 594.94 Z" />
<path data="26" fill="#55afed" opacity="1.00" d=" M 717.95 593.48 C 726.97 599.15 736.41 604.15 745.47 609.76 C 744.58 611.18 743.68 612.59 742.81 614.03 C 733.21 609.54 724.49 603.36 715.09 598.45 C 716.04 596.79 717.02 595.15 717.95 593.48 Z" />
<path data="1" fill="#55afed" opacity="1.00" d=" M 154.48 647.41 C 159.05 643.67 163.31 639.57 168.06 636.05 C 170.78 639.43 173.59 642.75 176.43 646.04 C 167.81 652.39 160.06 659.84 151.72 666.54 C 150.09 667.63 148.58 670.22 146.41 669.67 C 143.87 666.76 141.61 663.61 138.99 660.76 C 143.83 655.95 149.32 651.87 154.48 647.41 Z" />
<path data="27" fill="#55afed" opacity="1.00" d=" M 674.06 645.23 C 676.84 641.98 679.71 638.82 682.22 635.35 C 692.07 643.46 701.73 651.81 711.59 659.90 C 708.72 663.27 705.92 666.70 703.04 670.07 C 693.85 661.28 683.59 653.66 674.06 645.23 Z" />
</g>
</svg>
