<svg version="1.1" xmlns="http://www.w3.org/2000/svg" xmlns:xlink="http://www.w3.org/1999/xlink" x="0px" y="0px"
	width="36px" height="36px" viewBox="0 0 455 455" style="enable-background:new 0 0 455 455;" xml:space="preserve">
<g>
	<path d="M95.026,298.424c-8.271,0-15,6.729-15,15s6.729,15,15,15s15-6.729,15-15S103.298,298.424,95.026,298.424z"/>
	<path d="M303.331,156.576c8.271,0,15-6.729,15-15s-6.729-15-15-15s-15,6.729-15,15S295.06,156.576,303.331,156.576z"/>
	<path d="M308.333,0L146.667,43.128L0,0v411.872L146.667,455l161.667-43.128L455,455V43.128L308.333,0z M347.012,328.424H137.446
		c-6.192,17.458-22.865,30-42.42,30c-24.813,0-45-20.187-45-45s20.187-45,45-45c19.555,0,36.228,12.542,42.42,30h209.565
		c15.418,0,27.962-12.543,27.962-27.962S362.43,242.5,347.012,242.5H190.387c-31.96,0-57.962-26.001-57.962-57.962
		s26.002-57.962,57.962-57.962h70.524c6.192-17.458,22.865-30,42.42-30c24.813,0,45,20.187,45,45s-20.187,45-45,45
		c-19.555,0-36.228-12.542-42.42-30h-70.524c-15.418,0-27.962,12.543-27.962,27.962s12.544,27.962,27.962,27.962h156.625
		c31.96,0,57.962,26.001,57.962,57.962S378.972,328.424,347.012,328.424z"/>
</g>
</svg>
